<svg width="468" height="257" viewBox="0 0 468 257" fill="none" xmlns="http://www.w3.org/2000/svg">
<path d="M0.105469 312.842C0.364498 312.426 0.529336 311.868 0.898257 311.608C2.83706 310.232 4.17145 308.573 4.20285 306.034C4.2107 305.122 4.7994 304.32 5.78058 304.147C7.60948 303.825 9.2814 302.968 11.2594 303.007C13.4651 303.054 15.7493 302.74 17.6488 301.231C18.7399 300.366 19.933 300.366 21.0947 301.301C21.8954 301.938 22.8059 302.166 23.9048 302.072C25.0037 301.977 26.134 302.315 27.2486 302.402C28.6144 302.496 29.9959 302.638 31.3539 302.551C33.7479 302.402 36.1499 301.962 37.9474 303.778C40.467 302.795 42.8768 302.253 44.8391 300.995C47.5079 299.289 50.216 297.842 53.2537 296.977C53.6618 296.859 54.1249 296.34 54.2505 295.924C55.0826 293.054 55.8361 290.161 56.6838 286.993C56.8958 286.788 57.3981 286.403 57.7671 285.908C60.4908 282.244 64.2428 281.088 68.6149 281.269C69.2978 281.301 70.2005 281.049 70.6557 280.593C72.3669 278.887 74.4941 278.298 76.7547 277.944C77.2492 277.865 77.7359 277.724 78.2069 277.551C81.1739 276.466 84.1959 276.261 87.3671 276.419C90.2007 276.56 93.0971 276.198 95.813 275.058C96.5901 274.728 97.5085 274.5 98.3327 274.579C99.3296 274.681 99.9026 274.343 100.625 273.706C102.768 271.811 104.306 271.717 106.159 273.667C107.893 275.499 110.264 276.025 112.305 277.213C112.846 277.527 113.851 277.472 114.447 277.181C115.892 276.466 117.674 276.505 118.851 275.2C119.079 274.948 119.542 274.925 119.871 274.744C122.156 273.47 125.185 274.217 127.116 272.024C129.558 271.458 132.03 271.01 134.416 270.278C136.481 269.649 138.49 269.178 140.829 269.87C142.148 268.399 143.498 266.937 144.801 265.428C145.649 264.445 145.947 263.242 146.135 261.968C146.316 260.742 146.622 259.523 147.03 258.36C147.682 256.52 147.862 254.728 147.25 252.833C146.787 251.402 146.394 249.932 146.206 248.446C146.033 247.11 146.167 245.726 146.167 244.114C147.376 244.342 148.42 244.751 149.432 244.68C150.366 244.617 151.269 244.036 152.234 243.658C152.517 240.891 152.839 238.281 153.027 235.671C153.6 227.895 154.134 220.12 154.636 212.344C154.778 210.12 154.778 207.887 154.809 205.654C154.817 205.3 154.746 204.805 154.519 204.601C153.302 203.516 153.435 202.203 153.639 200.795C153.742 200.064 153.781 199.215 153.506 198.555C152.368 195.78 152.807 193.051 153.93 190.504C155.735 186.416 156.45 182.116 157.054 177.744C157.651 173.381 158.592 169.073 160.296 164.985C160.806 163.766 160.829 162.571 160.829 161.305C160.829 160.055 160.861 158.79 161.081 157.563C161.206 156.871 161.607 156.054 162.148 155.668C162.965 155.094 164.04 154.764 164.252 153.695C164.44 152.752 164.291 151.737 164.291 150.165C163.286 151.541 163.702 153.31 161.85 153.656C160.217 151.171 160.139 147.869 158.137 145.157C157.548 145.715 157.054 146.195 156.52 146.698C156.418 146.635 156.206 146.557 156.088 146.407C155.861 146.116 155.751 145.684 155.476 145.472C153.2 143.766 151.622 141.564 150.586 138.923C150.413 138.49 149.99 138.16 149.55 137.625C148.577 139.253 147.69 140.723 146.748 142.303C147.022 143.451 147.305 144.662 147.556 145.739C146.897 147.075 145.876 145.912 145.146 146.336C142.878 150.951 140.594 155.566 138.341 160.189C138.011 160.865 137.666 161.58 137.58 162.312C137.266 164.914 136.12 167.131 134.495 169.073C132.226 171.793 132.14 174.757 133.145 177.941C133.325 178.523 133.529 179.112 133.6 179.718C133.671 180.276 132.784 180.897 132.258 180.685C131.92 180.543 131.567 180.347 131.316 180.087C130.539 179.301 129.738 179.977 128.945 179.985C125.272 177.021 125.821 173.192 126.857 169.332C127.038 168.664 127.666 168.074 128.184 167.54C131.457 164.167 133.176 160.063 133.992 155.503C134.283 153.899 134.801 152.343 135.131 150.747C135.845 147.303 136.583 143.868 137.14 140.393C137.305 139.347 136.928 138.215 136.763 136.847C137.533 134.929 138.757 132.845 138.875 130.385C138.898 129.921 139.267 129.481 139.479 129.032C140.68 126.438 141.112 122.515 140.523 119.559C140.5 119.457 140.366 119.378 140.107 119.095C139.785 119.331 139.369 119.527 139.095 119.842C138.624 120.377 138.247 120.982 137.391 121.367C137.493 120.809 137.587 120.243 137.697 119.685C138.184 117.09 138.718 114.512 137.831 111.878C137.642 111.32 137.682 110.636 137.792 110.046C138.451 106.595 139.165 103.159 139.84 99.7156C140.005 98.8744 140.201 98.0017 139.526 97.1762C138.945 97.53 138.435 97.8366 137.721 98.269C135.923 96.9482 133.992 95.651 132.156 94.1809C133.506 92.64 134.628 91.3585 135.704 90.132C135.06 88.1037 133.2 87.404 132.328 85.863C132.493 84.558 134.448 84.5187 134.471 82.8126C133.498 82.679 132.587 82.5611 131.567 82.4274C131.363 81.4919 131.229 80.6349 130.986 79.8016C130.813 79.2041 130.649 78.3786 130.209 78.127C128.129 76.9241 127.328 74.7307 125.978 72.9775C125.9 72.8753 125.845 72.7338 125.743 72.6866C123.16 71.3972 123.364 69.0623 123.725 66.8295C124.039 64.8562 124.589 62.8907 125.248 61.0039C126.127 58.4802 127.909 56.8292 130.523 56.0588C133.569 55.1625 136.575 54.3606 139.754 55.4691C140.319 55.6657 141.002 55.6971 141.598 55.6028C143.482 55.3198 145.162 55.3434 145.806 57.6076C149.44 59.2035 150.217 62.8514 151.779 65.949C151.999 66.3892 152.297 66.7981 152.58 67.2147C152.635 67.3012 152.784 67.3169 153.153 67.4899C153.687 66.9946 154.307 66.4286 154.919 65.8546C156.913 63.9835 159.213 63.0087 161.999 62.7964C166.638 62.4347 170.688 63.5983 174.244 66.5858C174.621 66.9081 175.037 67.1833 175.437 67.482C177.18 67.144 178.867 66.8138 180.673 66.4679C180.806 63.8499 179.079 61.9001 178.71 59.3765C180.461 56.4047 183.624 55.5163 186.756 54.282C187.988 55.2569 188.938 56.7978 190.893 56.3025C191.387 57.3088 191.882 58.1658 192.258 59.0777C193.703 62.5605 195.108 66.059 196.529 69.5576C196.623 69.7934 196.709 70.0293 196.795 70.2651C197.306 71.6881 198.161 72.9146 198.93 74.2039C199.66 75.4304 199.794 77.0185 200.226 78.583C202.965 78.8896 205.547 79.0625 208.138 78.583C209.37 78.355 210.595 78.0641 211.835 77.8754C212.298 77.8046 212.989 77.7575 213.24 78.0248C214.37 79.2434 215.76 78.9761 217.11 78.8424C221.749 78.3707 226.372 78.3235 231.019 78.7481C233.507 78.9761 236.034 78.7874 238.46 78.7874C239.198 77.9068 239.81 77.1757 240.352 76.5232C242.102 76.8141 242.832 78.1348 243.798 79.0468C245.462 80.6192 247.306 81.0359 249.559 81.201C254.292 81.5469 257.966 78.9918 261.93 77.2307C263.021 76.7433 263.939 75.7763 264.316 74.4634C264.52 73.7479 264.92 73.0797 265.124 72.3643C266.561 67.2855 267.448 62.0967 268.115 56.8764C268.248 55.8308 268.186 54.9503 267.165 54.2506C266.804 53.999 266.584 53.0556 266.757 52.6153C267.558 50.5555 267.895 48.3384 269.669 46.6324C271.906 44.4704 273.774 41.931 275.862 39.4703C275.085 36.7108 273.248 35.0912 270.289 34.6824C269.787 33.0629 269.3 31.522 268.798 29.9103C268.374 29.6901 267.919 29.4936 267.495 29.242C265.846 28.2357 264.504 27.0722 264.394 24.8866C264.339 23.7859 263.821 22.7088 263.523 21.616C262.573 18.204 263.256 15.1064 265.517 12.4334C267.134 10.5151 269.01 8.81694 270.595 6.87506C272.675 4.32782 275.077 2.65325 278.508 2.57463C279.591 2.55105 280.682 2.00072 281.726 1.58404C284.96 0.302559 286.773 0.923645 288.492 3.57309C289.803 5.59358 291.176 7.48829 291.286 10.0355C291.318 10.8453 291.781 11.7337 292.275 12.4098C293.217 13.6834 293.28 14.9649 292.605 16.2936C291.851 17.7716 292.032 19.116 292.684 20.6176C293.359 22.1664 294.238 23.7309 293.72 25.6177C293.625 25.9636 294.316 26.6397 294.771 26.9935C295.863 27.8112 297.166 27.5832 298.414 27.5517C300.007 27.5124 301.412 27.9605 302.425 29.2342C302.888 29.8159 303.233 30.5078 303.516 31.1996C303.892 32.1273 304.151 33.1022 304.418 33.9434C306.232 35.618 308.225 35.9639 310.462 35.4686C311.561 35.2249 312.692 35.0598 313.814 34.9812C315.392 34.8632 316.797 35.2092 317.723 36.6872C318.32 37.6385 319.018 38.5269 319.591 39.3288C321.985 39.9499 324.277 40.5081 326.538 41.1606C327.653 41.4829 328.469 42.2455 329.144 43.2204C331.295 46.3101 333.524 49.3448 335.667 52.4423C337.095 54.5021 338.563 56.5619 339.78 58.7554C340.745 60.5007 341.562 62.3876 342.064 64.3137C342.59 66.3264 343.736 67.8909 344.764 69.5812C346.099 69.0072 346.256 67.7887 346.664 66.7745C347.951 63.6376 349.168 60.4693 350.424 57.3088C350.706 56.6091 350.934 55.8622 351.358 55.2569C351.695 54.7773 352.26 54.2741 352.802 54.1641C357.174 53.3071 360.997 54.3921 364.105 57.6626C364.866 58.4645 365.031 59.4079 364.592 60.4535C364.246 61.2633 363.917 62.081 363.587 62.8986C361.138 68.9601 358.697 75.0216 356.224 81.0752C355.698 82.3645 355.172 83.6224 355.596 85.0533L355.691 84.9589C354.701 85.5643 353.987 86.3269 353.54 87.4669C352.025 91.327 350.447 95.1636 348.799 98.9687C348.108 100.573 348.014 102.137 348.587 103.733C349.105 105.172 349.427 106.563 349.144 108.136C349.003 108.93 349.38 109.85 349.647 110.675C350.196 112.342 350.91 113.961 351.42 115.644C351.782 116.831 351.899 118.089 352.158 119.315C352.833 122.546 351.593 124.905 348.956 126.729C347.315 127.869 345.761 129.127 344.05 130.424C343.579 130.172 343.053 129.882 342.574 129.622C342.574 129.229 342.496 128.954 342.59 128.757C343.061 127.68 344.544 127.043 343.901 125.306C343.5 125.282 343.037 125.243 342.574 125.243C342.221 125.243 341.868 125.298 341.373 125.337C340.918 124.433 340.486 123.568 340.062 122.712C339.772 122.782 339.427 122.767 339.372 122.884C338.414 125.046 337.496 127.232 336.656 129.205C334.207 130.251 332.182 129.135 330.298 128.875C329.372 129.315 329.552 129.999 329.513 130.581C329.411 132.083 329.301 133.592 329.277 135.102C329.238 137.61 329.23 140.126 330.431 142.453C330.714 142.995 330.918 143.648 330.934 144.245C330.973 145.928 331.499 147.421 332.237 148.907C332.912 150.275 333.249 151.769 332.872 153.302C332.551 154.615 332.896 155.755 333.438 156.926C333.854 157.83 334.222 158.805 334.332 159.78C334.489 161.093 334.874 162.107 336.02 162.925C337.299 163.837 336.915 165.417 336.946 166.872C338.61 167.524 339.568 168.672 340.078 170.378C340.423 171.526 341.405 172.477 342.025 173.554C344.277 177.477 346.53 181.4 348.712 185.363C350.055 187.792 350.761 190.433 351.397 193.154C352.19 196.526 352.621 200.08 354.482 203.225C356.413 203.578 358.249 203.461 360.086 202.989C361.656 202.588 363.234 202.218 364.827 201.92C365.416 201.81 366.099 201.825 366.664 202.022C367.865 202.431 368.854 202.25 369.78 201.393C370.133 201.071 370.636 200.677 371.052 200.701C373.414 200.843 375.793 201 378.124 201.369C379.286 201.558 380.016 202.564 380.338 203.72C380.604 204.663 380.769 205.638 381.036 206.825C382.072 206.904 383.053 207.124 383.995 207.022C385.353 206.88 386.546 207.219 387.473 208.107C388.642 209.231 390.377 209.593 391.248 211.126C391.923 212.305 392.991 213.249 392.967 214.797C392.959 215.363 393.383 215.945 393.658 216.496C393.878 216.936 394.404 217.345 394.404 217.769C394.419 221.103 396.288 223.941 396.884 227.361C399.003 228.052 401.217 228.909 403.501 229.475C404.922 229.829 406.374 229.9 407.638 228.532C408.815 227.266 410.982 227.549 412.214 226.166C414.922 226.142 416.578 223.909 418.87 223.005C419.789 222.643 420.636 222.046 421.586 221.81C423.658 221.307 425.519 220.285 427.387 219.389C428.823 218.705 430.071 218.202 431.649 218.571C432.222 218.705 432.866 218.516 433.8 218.453C433.494 217.494 433.25 216.739 432.968 215.859C433.776 211.81 436.633 209.105 439.859 206.44C439.883 206.259 439.922 205.898 439.969 205.528C440.228 203.476 440.574 203.075 442.363 202.824C442.858 202.753 443.36 202.737 443.863 202.722C447.379 202.635 449.624 200.717 451.123 197.69C451.673 196.581 452.277 195.481 452.944 194.443C453.816 193.083 455.009 192.242 456.728 192.706C457.921 193.028 458.981 192.879 459.836 191.951C462.058 189.561 464.876 188.893 468 189.105C468 230.364 468 271.631 468 312.89C312.072 312.842 156.088 312.842 0.105469 312.842ZM171.151 247.086L171.261 247.188C171.615 246.441 171.96 245.702 172.352 244.877C173.334 245.946 173.969 245.388 174.605 244.822C175.319 246.693 175.681 247.007 177.141 246.599C177.941 246.371 178.765 245.97 179.401 245.427C181.293 243.815 183.161 242.149 184.244 239.861C186.544 239.735 188.593 239.279 190.539 238.147C190.759 237.054 190.979 235.977 191.167 235.034C194.032 233.037 193.703 233.06 193.491 230.089C193.287 227.266 190.72 225.285 191.16 222.345C191.199 222.085 190.775 221.731 190.532 221.456C185.791 215.945 181.065 210.426 176.285 204.954C174.974 203.445 173.538 202.038 172.101 200.646C171.395 199.962 170.563 199.828 169.691 200.772C169.723 201.149 169.652 201.676 169.817 202.116C171.042 205.395 170.469 208.752 170.359 212.093C170.312 213.469 170.343 214.852 170.272 216.236C170.202 217.612 170.178 219.011 169.911 220.356C168.875 225.521 167.847 230.686 166.057 235.663C165.257 237.888 164.071 240.01 164.213 242.51C164.236 242.966 163.969 243.493 163.71 243.902C162.58 245.663 162.784 247.432 163.247 248.682C165.571 250.702 167.431 252.314 169.354 253.989C170.045 253.47 170.665 253.069 171.222 252.581C172.25 251.693 172.4 250.412 172.462 249.185C172.509 248.273 172.078 247.471 171.151 247.086ZM253.798 222.754L253.884 222.832C254.049 222.227 254.174 221.606 254.378 221.016C255.163 218.705 256.184 216.621 258.625 215.552C260.022 214.939 260.642 213.862 260.187 212.179C259.496 209.648 259.551 206.936 258.405 204.498C257.934 203.492 258.123 202.509 258.539 201.582C258.994 200.575 259.583 199.624 260.156 198.563C259.253 196.047 259.379 193.413 259.543 190.772C259.693 188.389 259.873 185.999 259.952 183.617C260.085 179.859 260.391 176.078 259.41 172.375C258.986 170.779 258.586 169.254 259.253 167.587C259.488 166.989 259.119 166.148 259.025 165.425C258.939 164.702 258.601 163.884 258.813 163.263C259.528 161.125 260.43 159.057 261.278 156.966C262.832 153.137 264.606 149.379 265.917 145.464C268.068 139.017 270.47 132.72 274.12 126.949C274.701 126.029 275.164 125.039 275.666 124.103C275.289 123.836 275.101 123.663 274.881 123.553C274.661 123.435 274.394 123.411 274.182 123.285C271.969 122.012 271.781 120.172 273.727 118.482C274.465 117.845 275.289 117.303 276.506 116.406C274.308 115.597 274.732 114.048 275.007 112.696C273.609 112.004 272.338 111.477 271.168 110.769C270.069 110.109 269.088 109.268 267.667 108.222C268.35 111.123 268.79 113.6 269.536 115.982C270.658 119.583 269.096 122.586 267.715 125.66C267.628 125.856 267.322 125.951 266.663 126.414C265.705 124.418 265.069 122.295 264.591 120.29C264.072 118.144 264.284 115.832 264.434 113.552C264.575 111.398 265.454 109.307 265.219 106.815C263.727 107.53 263.131 108.67 262.306 109.567C260.093 111.957 257.848 114.323 255.595 116.681C255.462 116.823 255.14 116.784 254.685 116.878C254.316 116.446 253.876 115.935 253.397 115.376C254.135 114.551 254.716 113.898 255.297 113.238C257.377 110.887 259.457 108.537 261.537 106.186C262.62 104.959 263.672 103.709 264.787 102.522C265.642 101.61 266.576 100.808 266.89 99.4719C267.016 98.9373 267.565 98.2612 268.06 98.1118C270.069 97.5143 271.027 95.997 271.859 94.3538C271.349 92.5928 270.878 90.9418 270.462 89.5109C268.068 90.1477 265.807 90.9496 263.484 91.3113C261.278 91.6572 258.994 91.6494 256.749 91.5865C254.402 91.5236 252.063 91.217 249.747 91.0204C248.955 91.9953 248.256 92.8601 247.495 93.7957C246.129 93.5912 244.802 93.3947 243.476 93.1982C242.887 91.7909 240.438 92.3333 240.414 90.2971C240.414 90.1635 240.046 89.9198 239.849 89.9198C238.217 89.9433 237.832 88.9449 237.51 87.5533C237.243 86.3819 236.49 85.3284 235.909 84.1334C235.061 84.1885 234.308 84.1649 233.593 84.3064C227.439 85.5093 221.56 87.8835 215.296 88.6226C214.857 88.6776 214.276 88.9685 214.072 89.3223C213.483 90.36 212.69 90.5173 211.568 90.533C208.993 90.5644 208.491 90.8553 206.576 92.5063C207.447 94.0236 208.648 95.2973 209.802 96.6023C210.728 97.6558 211.709 98.5363 213.208 98.7486C214.48 98.9294 215.524 99.6684 216.411 100.604C218.224 102.514 219.355 104.881 220.901 107.035C220.21 107.601 219.653 108.049 218.978 108.6C219.166 109.7 219.213 110.848 219.574 111.894C221.089 116.304 222.204 120.793 222.95 125.408C223.939 131.501 225.273 137.547 222.541 143.545C222.337 143.986 222.361 144.528 222.282 145.031C221.976 147.146 220.987 148.805 219.095 149.882C218.114 150.44 217.212 151.14 216.199 151.627C211.309 154.002 206.285 155.904 200.744 155.951C199.747 155.959 198.75 156.085 197.675 156.156C197.211 156.722 196.646 157.249 196.277 157.885C194.566 160.818 192.941 163.79 191.23 166.722C188.318 171.707 185.987 177.013 182.604 181.746C181.316 183.539 180.367 185.63 180.233 188.028C182.714 188.57 184.425 190.15 185.963 191.99C187.329 193.625 188.75 195.229 190.084 196.888C191.426 198.547 192.871 200.159 193.962 201.975C196.466 206.181 198.813 210.481 201.167 214.774C202.054 216.393 202.8 218.099 203.632 219.797C205.367 219.632 206.96 219.483 208.821 219.31C208.821 220.112 208.797 220.827 208.829 221.535C208.852 222.156 208.719 222.926 209.025 223.359C210.579 225.482 211.34 228.052 213.122 230.081C215.281 232.534 217.722 234.963 217.588 238.894C220.909 237.699 224.072 236.842 226.945 235.403C228.452 234.649 229.653 234.358 231.152 234.932C233.35 235.773 235.509 235.435 237.675 234.821C237.243 232.667 238.523 231.339 239.677 230.057C240.689 228.933 242.173 229.035 243.57 229.169C244.072 229.216 244.559 229.334 245.061 229.389C248.091 229.766 250.783 229.09 252.973 226.834C253.499 226.291 253.962 225.631 254.598 225.277C256.827 224.043 257.966 221.967 258.986 219.805C259.237 219.279 259.488 218.642 258.539 218.233C258.185 218.5 257.762 218.76 257.416 219.098C256.2 220.309 255.006 221.535 253.798 222.754ZM303.484 225.906C304.01 224.9 304.356 224.09 304.834 223.367C305.164 222.864 305.611 222.274 306.13 222.093C308.759 221.197 309.991 218.123 312.951 217.761C313.225 217.73 313.547 217.282 313.665 216.959C314.387 214.939 316.051 214.451 317.888 214.475C319.748 214.499 321.514 214.05 322.731 212.785C323.791 211.684 324.897 211.621 326.122 211.715C327.37 211.81 328.594 212.093 329.827 212.321C330.832 212.51 331.766 212.58 332.692 211.92C334.466 210.662 336.201 210.969 337.92 212.179C338.336 212.47 339.011 212.392 339.56 212.478C338.532 209.734 337.582 207.211 336.679 204.821C337.166 204.152 337.511 203.681 337.904 203.146C334.905 200.929 333.296 197.926 332.04 194.781C330.361 190.591 328.932 186.298 326.075 182.69C325.769 182.304 325.58 181.809 325.392 181.345C324.623 179.466 323.602 177.776 322.229 176.259C321.397 175.339 320.51 174.277 320.196 173.122C319.458 170.394 317.904 168.122 316.632 165.684C313.547 159.788 310.525 153.86 307.37 148.003C306.255 145.935 304.936 143.962 303.029 142.154C302.032 143.144 301.106 143.962 300.297 144.882C297.479 148.09 294.803 151.439 291.883 154.544C289.112 157.492 286.82 160.771 284.536 164.073C283.406 165.708 282.471 167.453 280.478 168.365C279.677 168.735 279.222 169.859 278.578 170.661C279.481 173.672 279.952 176.62 278.955 179.623C278.845 179.961 278.947 180.37 278.963 180.748C279.19 188.955 278.233 197.061 276.765 205.119C276.451 206.841 276.043 208.602 276.875 210.285C277.401 211.354 276.953 212.297 276.498 213.146C276.051 213.988 275.305 214.672 274.669 215.458C275.705 217.172 275.258 218.941 275.038 220.67C274.661 223.555 274.708 226.323 275.831 229.114C276.71 231.307 277.11 233.689 277.691 236.001C277.974 237.133 277.534 237.966 276.482 238.462C275.917 238.729 275.329 238.941 274.795 239.248C274.63 239.342 274.591 239.664 274.418 240.042C274.81 240.537 275.258 241.103 275.556 241.48C278.366 241.653 277.44 239.075 278.712 237.888C279.088 237.754 279.669 237.55 280.258 237.345C283.531 236.213 285.917 234.177 286.922 230.749C287.77 227.864 289.787 225.859 291.993 223.87C295.69 224.939 299.23 226.857 303.484 225.906ZM140.476 115.282C141.991 112.908 141.551 110.651 141.481 107.845C140.531 110.534 140.146 112.688 140.476 115.282ZM266.733 115.408C266.09 116.965 265.737 118.545 267.322 120.439C267.683 118.395 267.66 116.902 266.733 115.408ZM159.267 264.083C159.158 264.052 159.04 263.989 158.93 263.997C158.891 263.997 158.859 264.154 158.828 264.241C158.938 264.272 159.056 264.327 159.158 264.319C159.197 264.311 159.228 264.162 159.267 264.083Z" fill="#191E22"/>
</svg>
