<svg width="674" height="334" viewBox="0 0 674 334" fill="none" xmlns="http://www.w3.org/2000/svg">
<g clip-path="url(#clip0_1812_3094)">
<path d="M32.718 98.1222C32.718 98.1222 36.8835 89.269 49.9199 95.8126C49.9199 95.8126 38.6577 87.3443 32.2552 96.0436C32.2552 96.0436 30.9438 94.4269 29.3239 95.5817C29.3239 95.5817 22.9214 89.115 12.5077 91.1166C12.5077 91.1166 25.7755 92.2714 28.9382 98.1992C29.0153 98.1222 30.4039 100.201 32.718 98.1222Z" fill="#0B0E10"/>
<path d="M72.9845 42.1548C72.9845 42.1548 74.913 33.7635 87.4866 36.9198C87.4866 36.9198 76.1472 31.6849 72.2131 40.3841C72.2131 40.3841 70.7475 39.2294 69.5904 40.5381C69.5904 40.5381 62.8022 36.15 54.2398 39.7683C54.2398 39.7683 65.9648 38.3056 69.7446 42.9246C69.7446 42.9246 71.3646 44.4643 72.9845 42.1548Z" fill="#0B0E10"/>
<path d="M15.1302 18.2125C15.1302 18.2125 18.6014 3.3545 40.6631 8.97437C40.6631 8.97437 20.6071 -0.263773 13.7417 15.1331C13.7417 15.1331 11.1961 13.0545 9.1905 15.3641C9.1905 15.3641 -2.76596 7.58865 -17.9623 13.9784C-17.9623 13.9784 2.78802 11.4379 9.34481 19.4443C9.42195 19.4443 12.2761 22.2157 15.1302 18.2125Z" fill="#0B0E10"/>
<path d="M185.993 16.7492C185.993 16.7492 190.158 7.97299 203.195 14.4397C203.195 14.4397 191.932 5.97139 185.53 14.6706C185.53 14.6706 184.218 13.054 182.599 14.2087C182.599 14.2087 176.196 7.74203 165.859 9.66664C165.859 9.66664 179.127 10.8214 182.213 16.7492C182.29 16.7492 183.679 18.8278 185.993 16.7492Z" fill="#0B0E10"/>
<path d="M202.732 331.77C202.732 331.77 204.66 323.302 217.156 326.613C217.156 326.613 205.894 321.301 201.96 330.077C201.96 330.077 200.495 328.922 199.337 330.231C199.337 330.231 192.549 325.766 183.987 329.461C183.987 329.461 195.712 327.998 199.415 332.54C199.492 332.463 201.112 334.003 202.732 331.77Z" fill="#0B0E10"/>
<path d="M144.878 307.828C144.878 307.828 148.272 292.97 170.411 298.59C170.411 298.59 150.432 289.352 143.489 304.672C143.489 304.672 140.944 302.593 138.938 304.903C138.938 304.903 126.982 297.127 111.785 303.517C111.785 303.517 132.458 300.9 139.169 308.983C139.092 309.06 142.024 311.832 144.878 307.828Z" fill="#0B0E10"/>
<path d="M315.74 306.289C315.74 306.289 319.905 297.513 332.942 303.979C332.942 303.979 321.679 295.511 315.354 304.21C315.354 304.21 314.043 302.594 312.423 303.671C312.423 303.671 306.02 297.205 295.684 299.129C295.684 299.129 308.952 300.361 312.037 306.212C311.96 306.289 313.426 308.367 315.74 306.289Z" fill="#0B0E10"/>
<path d="M227.107 157.016C227.107 157.016 229.036 148.625 241.532 151.781C241.532 151.781 230.193 146.546 226.336 155.245C226.336 155.245 224.87 154.09 223.713 155.399C223.713 155.399 216.925 151.011 208.363 154.629C208.363 154.629 220.088 153.167 223.867 157.709C223.79 157.709 225.41 159.325 227.107 157.016Z" fill="#0B0E10"/>
<path d="M169.254 133.073C169.254 133.073 172.725 118.215 194.709 123.835C194.709 123.835 174.73 114.597 167.865 129.917C167.865 129.917 165.319 127.838 163.237 130.148C163.237 130.148 151.28 122.372 136.161 128.762C136.161 128.762 156.834 126.145 163.468 134.228C163.468 134.305 166.322 137.153 169.254 133.073Z" fill="#0B0E10"/>
<path d="M340.115 131.534C340.115 131.534 344.281 122.681 357.317 129.224C357.317 129.224 346.055 120.756 339.653 129.455C339.653 129.455 338.341 127.839 336.721 128.993C336.721 128.993 330.319 122.527 319.982 124.528C319.982 124.528 333.25 125.683 336.336 131.611C336.336 131.534 337.724 133.689 340.115 131.534Z" fill="#0B0E10"/>
<path d="M543.222 243.392C543.222 243.392 545.15 234.924 557.646 238.157C557.646 238.157 546.307 232.922 542.45 241.622C542.45 241.622 540.985 240.467 539.827 241.699C539.827 241.699 533.039 237.311 524.477 240.929C524.477 240.929 536.202 239.466 539.905 244.008C539.982 244.008 541.602 245.625 543.222 243.392Z" fill="#0B0E10"/>
<path d="M485.367 219.45C485.367 219.45 488.839 204.592 510.823 210.289C510.823 210.289 490.844 201.051 483.979 216.371C483.979 216.371 481.433 214.292 479.351 216.602C479.351 216.602 467.394 208.826 452.275 215.216C452.275 215.216 472.948 212.676 479.582 220.682C479.582 220.605 482.513 223.453 485.367 219.45Z" fill="#0B0E10"/>
<path d="M656.23 217.91C656.23 217.91 660.395 209.057 673.432 215.601C673.432 215.601 662.169 207.132 655.767 215.832C655.767 215.832 654.456 214.215 652.836 215.37C652.836 215.37 646.433 208.903 636.097 210.828C636.097 210.828 649.364 211.982 652.45 217.91C652.527 217.833 653.916 219.989 656.23 217.91Z" fill="#0B0E10"/>
</g>
<defs>
<clipPath id="clip0_1812_3094">
<rect width="1017.92" height="332.881" fill="white" transform="matrix(-1 0 0 1 673.432 0.121094)"/>
</clipPath>
</defs>
</svg>
