<svg width="261" height="16" viewBox="0 0 261 16" fill="none" xmlns="http://www.w3.org/2000/svg">
<path d="M8.44531 10.1938V12.3032L2.69531 12.3032L2.69531 10.1938L8.44531 10.1938ZM3.67187 0.928223L3.67187 12.3032L0.929687 12.3032L0.929687 0.928223L3.67187 0.928223ZM12.5156 0.928223L12.5156 12.3032L9.78125 12.3032L9.78125 0.928223L12.5156 0.928223ZM20.3047 9.27979C20.3047 9.1027 20.2786 8.94385 20.2266 8.80322C20.1745 8.65739 20.0781 8.52197 19.9375 8.39697C19.7969 8.27197 19.5937 8.14697 19.3281 8.02197C19.0677 7.89176 18.724 7.75635 18.2969 7.61572C17.7969 7.44906 17.3151 7.26156 16.8516 7.05322C16.388 6.83968 15.974 6.59229 15.6094 6.31104C15.2448 6.02458 14.9557 5.69124 14.7422 5.31104C14.5286 4.92562 14.4219 4.4777 14.4219 3.96729C14.4219 3.4777 14.5312 3.0376 14.75 2.64697C14.9687 2.25114 15.2734 1.9152 15.6641 1.63916C16.0599 1.35791 16.5234 1.14437 17.0547 0.998535C17.5859 0.847493 18.1667 0.771973 18.7969 0.771973C19.6302 0.771973 20.3646 0.917806 21 1.20947C21.6406 1.49593 22.1406 1.90479 22.5 2.43604C22.8646 2.96208 23.0469 3.58447 23.0469 4.30322L20.3203 4.30322C20.3203 4.01676 20.2604 3.76416 20.1406 3.54541C20.026 3.32666 19.8516 3.15479 19.6172 3.02979C19.3828 2.90479 19.0885 2.84229 18.7344 2.84229C18.3906 2.84229 18.1016 2.89437 17.8672 2.99854C17.6328 3.1027 17.4557 3.24333 17.3359 3.42041C17.2161 3.59229 17.1562 3.78239 17.1562 3.99072C17.1562 4.1626 17.2031 4.31885 17.2969 4.45947C17.3958 4.59489 17.5339 4.72249 17.7109 4.84229C17.8932 4.96208 18.112 5.07666 18.3672 5.18604C18.6276 5.29541 18.9193 5.40218 19.2422 5.50635C19.8464 5.69906 20.3828 5.9152 20.8516 6.15479C21.3255 6.38916 21.724 6.65739 22.0469 6.95947C22.375 7.25635 22.6224 7.59489 22.7891 7.9751C22.9609 8.35531 23.0469 8.78499 23.0469 9.26416C23.0469 9.77458 22.9479 10.2277 22.75 10.6235C22.5521 11.0194 22.2682 11.3553 21.8984 11.6313C21.5286 11.9022 21.0859 12.1079 20.5703 12.2485C20.0547 12.3892 19.4792 12.4595 18.8437 12.4595C18.2604 12.4595 17.6849 12.3866 17.1172 12.2407C16.5547 12.0897 16.0443 11.8605 15.5859 11.5532C15.1276 11.2407 14.7604 10.8423 14.4844 10.3579C14.2135 9.86833 14.0781 9.2876 14.0781 8.61572L16.8281 8.61572C16.8281 8.94906 16.8724 9.23031 16.9609 9.45947C17.0495 9.68864 17.1797 9.87354 17.3516 10.0142C17.5234 10.1496 17.7344 10.2485 17.9844 10.311C18.2344 10.3683 18.5208 10.397 18.8437 10.397C19.1927 10.397 19.474 10.3475 19.6875 10.2485C19.901 10.1444 20.0573 10.009 20.1562 9.84229C20.2552 9.67041 20.3047 9.48291 20.3047 9.27979ZM29.9688 0.928223L29.9687 12.3032L27.2266 12.3032L27.2266 0.928223L29.9688 0.928223ZM33.3906 0.928223L33.3906 3.04541L23.8828 3.04541L23.8828 0.928223L33.3906 0.928223ZM42.3828 10.1938V12.3032L36.3203 12.3032V10.1938L42.3828 10.1938ZM37.2969 0.928223L37.2969 12.3032L34.5547 12.3032L34.5547 0.928223L37.2969 0.928223ZM41.6016 5.44385V7.48291L36.3203 7.48291V5.44385L41.6016 5.44385ZM42.4062 0.928223L42.4062 3.04541L36.3203 3.04541L36.3203 0.928223L42.4062 0.928223ZM53.0078 0.928223L53.0078 12.3032L50.2734 12.3032L46.25 5.2251L46.25 12.3032L43.5078 12.3032L43.5078 0.928223L46.25 0.928223L50.2734 8.00635L50.2734 0.928223L53.0078 0.928223ZM63.0547 3.8501V5.67822L57.9609 5.67822V3.8501L63.0547 3.8501ZM59.0312 1.74854L61.6641 1.74854L61.6641 9.54541C61.6641 9.76937 61.6901 9.94385 61.7422 10.0688C61.7943 10.1886 61.8828 10.2746 62.0078 10.3267C62.138 10.3735 62.3099 10.397 62.5234 10.397C62.6745 10.397 62.7995 10.3944 62.8984 10.3892C62.9974 10.3787 63.0911 10.3657 63.1797 10.3501V12.2329C62.9557 12.3058 62.7214 12.3605 62.4766 12.397C62.2318 12.4386 61.9714 12.4595 61.6953 12.4595C61.1328 12.4595 60.651 12.3709 60.25 12.1938C59.8542 12.0168 59.5521 11.7381 59.3437 11.3579C59.1354 10.9777 59.0312 10.4829 59.0312 9.87354L59.0312 1.74854ZM63.5391 8.1626V7.99854C63.5391 7.37874 63.6276 6.80843 63.8047 6.2876C63.9818 5.76156 64.2422 5.30583 64.5859 4.92041C64.9297 4.53499 65.3542 4.23551 65.8594 4.02197C66.3646 3.80322 66.9479 3.69385 67.6094 3.69385C68.276 3.69385 68.862 3.80322 69.3672 4.02197C69.8776 4.23551 70.3047 4.53499 70.6484 4.92041C70.9922 5.30583 71.2526 5.76156 71.4297 6.2876C71.6068 6.80843 71.6953 7.37874 71.6953 7.99854V8.1626C71.6953 8.77718 71.6068 9.34749 71.4297 9.87354C71.2526 10.3944 70.9922 10.8501 70.6484 11.2407C70.3047 11.6261 69.8802 11.9256 69.375 12.1392C68.8698 12.3527 68.2865 12.4595 67.625 12.4595C66.9635 12.4595 66.3776 12.3527 65.8672 12.1392C65.3568 11.9256 64.9297 11.6261 64.5859 11.2407C64.2422 10.8501 63.9818 10.3944 63.8047 9.87354C63.6276 9.34749 63.5391 8.77718 63.5391 8.1626ZM66.1719 7.99854V8.1626C66.1719 8.48031 66.1953 8.77718 66.2422 9.05322C66.2891 9.32926 66.3672 9.57145 66.4766 9.77979C66.5859 9.98291 66.7344 10.1418 66.9219 10.2563C67.1094 10.3709 67.3437 10.4282 67.625 10.4282C67.901 10.4282 68.1302 10.3709 68.3125 10.2563C68.5 10.1418 68.6484 9.98291 68.7578 9.77979C68.8672 9.57145 68.9453 9.32926 68.9922 9.05322C69.0391 8.77718 69.0625 8.48031 69.0625 8.1626V7.99854C69.0625 7.69124 69.0391 7.40218 68.9922 7.13135C68.9453 6.85531 68.8672 6.61312 68.7578 6.40479C68.6484 6.19124 68.5 6.02458 68.3125 5.90479C68.125 5.78499 67.8906 5.7251 67.6094 5.7251C67.3333 5.7251 67.1016 5.78499 66.9141 5.90479C66.7318 6.02458 66.5859 6.19124 66.4766 6.40479C66.3672 6.61312 66.2891 6.85531 66.2422 7.13135C66.1953 7.40218 66.1719 7.69124 66.1719 7.99854ZM81.3047 3.8501L81.3047 5.67822L76.2109 5.67822L76.2109 3.8501L81.3047 3.8501ZM77.2812 1.74854L79.9141 1.74854L79.9141 9.54541C79.9141 9.76937 79.9401 9.94385 79.9922 10.0688C80.0443 10.1886 80.1328 10.2746 80.2578 10.3267C80.388 10.3735 80.5599 10.397 80.7734 10.397C80.9245 10.397 81.0495 10.3944 81.1484 10.3892C81.2474 10.3787 81.3411 10.3657 81.4297 10.3501V12.2329C81.2057 12.3058 80.9714 12.3605 80.7266 12.397C80.4818 12.4386 80.2214 12.4595 79.9453 12.4595C79.3828 12.4595 78.901 12.3709 78.5 12.1938C78.1042 12.0168 77.8021 11.7381 77.5937 11.3579C77.3854 10.9777 77.2812 10.4829 77.2812 9.87354L77.2812 1.74854ZM84.9297 0.303223L84.9297 12.3032L82.2969 12.3032L82.2969 0.303223L84.9297 0.303223ZM84.6172 7.7876L84 7.80322C84 7.20947 84.0729 6.6626 84.2187 6.1626C84.3646 5.6626 84.5729 5.2277 84.8438 4.85791C85.1146 4.48812 85.4401 4.20166 85.8203 3.99854C86.2005 3.79541 86.6224 3.69385 87.0859 3.69385C87.5026 3.69385 87.8828 3.75374 88.2266 3.87354C88.5755 3.99333 88.875 4.18604 89.125 4.45166C89.3802 4.71729 89.5755 5.06364 89.7109 5.49072C89.8516 5.91781 89.9219 6.43864 89.9219 7.05322V12.3032L87.2734 12.3032V7.0376C87.2734 6.69385 87.224 6.42822 87.125 6.24072C87.0312 6.04801 86.8958 5.9152 86.7187 5.84229C86.5417 5.76416 86.3255 5.7251 86.0703 5.7251C85.763 5.7251 85.513 5.77718 85.3203 5.88135C85.1276 5.98551 84.9792 6.13135 84.875 6.31885C84.776 6.50114 84.7083 6.71729 84.6719 6.96729C84.6354 7.21729 84.6172 7.49072 84.6172 7.7876ZM95.4766 12.4595C94.7891 12.4595 94.1745 12.3527 93.6328 12.1392C93.0911 11.9204 92.6328 11.6209 92.2578 11.2407C91.888 10.8605 91.6042 10.423 91.4062 9.92822C91.2135 9.43343 91.1172 8.90999 91.1172 8.35791V8.06104C91.1172 7.44124 91.2031 6.86833 91.375 6.34229C91.5469 5.81104 91.8021 5.34749 92.1406 4.95166C92.4792 4.55583 92.9036 4.24854 93.4141 4.02979C93.9245 3.80583 94.5182 3.69385 95.1953 3.69385C95.7943 3.69385 96.3307 3.7902 96.8047 3.98291C97.2786 4.17562 97.6797 4.45166 98.0078 4.81104C98.3411 5.17041 98.5937 5.60531 98.7656 6.11572C98.9427 6.62614 99.0312 7.19906 99.0312 7.83447V8.90479L92.125 8.90479V7.25635L96.4609 7.25635V7.05322C96.4661 6.77197 96.4167 6.53239 96.3125 6.33447C96.2135 6.13656 96.0677 5.98551 95.875 5.88135C95.6823 5.77718 95.4479 5.7251 95.1719 5.7251C94.8854 5.7251 94.6484 5.7876 94.4609 5.9126C94.2786 6.0376 94.1354 6.20947 94.0312 6.42822C93.9323 6.64176 93.862 6.88916 93.8203 7.17041C93.7786 7.45166 93.7578 7.74854 93.7578 8.06104V8.35791C93.7578 8.67041 93.7995 8.95426 93.8828 9.20947C93.9714 9.46468 94.0964 9.68343 94.2578 9.86572C94.4245 10.0428 94.6224 10.1808 94.8516 10.2798C95.0859 10.3787 95.3516 10.4282 95.6484 10.4282C96.0078 10.4282 96.362 10.3605 96.7109 10.2251C97.0599 10.0897 97.3594 9.86572 97.6094 9.55322L98.8047 10.9751C98.6328 11.2199 98.388 11.4569 98.0703 11.686C97.7578 11.9152 97.3828 12.1027 96.9453 12.2485C96.5078 12.3892 96.0182 12.4595 95.4766 12.4595ZM107.906 12.3032L105.383 12.3032L105.398 10.1938L107.906 10.1938C108.427 10.1938 108.867 10.0688 109.227 9.81885C109.591 9.56885 109.867 9.19645 110.055 8.70166C110.247 8.20166 110.344 7.58708 110.344 6.85791V6.36572C110.344 5.81885 110.289 5.33968 110.18 4.92822C110.076 4.51156 109.919 4.1652 109.711 3.88916C109.503 3.60791 109.242 3.39697 108.93 3.25635C108.622 3.11572 108.268 3.04541 107.867 3.04541L105.336 3.04541V0.928223L107.867 0.928223C108.638 0.928223 109.344 1.06104 109.984 1.32666C110.63 1.58708 111.188 1.96208 111.656 2.45166C112.13 2.93604 112.495 3.51156 112.75 4.17822C113.01 4.83968 113.141 5.57406 113.141 6.38135V6.85791C113.141 7.65999 113.01 8.39437 112.75 9.06104C112.495 9.7277 112.133 10.3032 111.664 10.7876C111.195 11.272 110.641 11.647 110 11.9126C109.365 12.173 108.667 12.3032 107.906 12.3032ZM106.953 0.928223L106.953 12.3032L104.211 12.3032L104.211 0.928223L106.953 0.928223ZM117.227 3.8501L117.227 12.3032L114.586 12.3032L114.586 3.8501L117.227 3.8501ZM114.43 1.67041C114.43 1.29541 114.565 0.988118 114.836 0.748535C115.107 0.508952 115.458 0.38916 115.891 0.38916C116.323 0.38916 116.674 0.508952 116.945 0.748535C117.216 0.988118 117.352 1.29541 117.352 1.67041C117.352 2.04541 117.216 2.3527 116.945 2.59229C116.674 2.83187 116.323 2.95166 115.891 2.95166C115.458 2.95166 115.107 2.83187 114.836 2.59229C114.565 2.3527 114.43 2.04541 114.43 1.67041ZM124.164 3.8501L126.555 3.8501L126.555 11.9751C126.555 12.7563 126.375 13.4178 126.016 13.9595C125.656 14.5063 125.154 14.9204 124.508 15.2017C123.867 15.4881 123.117 15.6313 122.258 15.6313C121.878 15.6313 121.49 15.5819 121.094 15.4829C120.698 15.3892 120.328 15.2485 119.984 15.061C119.641 14.8735 119.352 14.6418 119.117 14.3657L120.219 12.8188C120.432 13.0584 120.701 13.2616 121.023 13.4282C121.346 13.6001 121.727 13.686 122.164 13.686C122.544 13.686 122.862 13.6183 123.117 13.4829C123.378 13.3475 123.576 13.1496 123.711 12.8892C123.846 12.634 123.914 12.3241 123.914 11.9595V5.8501L124.164 3.8501ZM118.547 8.17822V8.01416C118.547 7.37354 118.625 6.7902 118.781 6.26416C118.943 5.73291 119.172 5.27718 119.469 4.89697C119.771 4.51156 120.135 4.21468 120.562 4.00635C120.99 3.79801 121.471 3.69385 122.008 3.69385C122.586 3.69385 123.06 3.80583 123.43 4.02979C123.805 4.24854 124.104 4.55583 124.328 4.95166C124.557 5.34749 124.734 5.81104 124.859 6.34229C124.99 6.86833 125.099 7.43604 125.187 8.04541V8.24072C125.099 8.81364 124.977 9.35531 124.82 9.86572C124.669 10.3709 124.471 10.8188 124.227 11.2095C123.982 11.6001 123.674 11.9074 123.305 12.1313C122.94 12.3501 122.503 12.4595 121.992 12.4595C121.461 12.4595 120.982 12.3527 120.555 12.1392C120.133 11.9256 119.771 11.6261 119.469 11.2407C119.172 10.8553 118.943 10.4022 118.781 9.88135C118.625 9.36051 118.547 8.79281 118.547 8.17822ZM121.18 8.01416V8.17822C121.18 8.49593 121.208 8.7902 121.266 9.06104C121.328 9.33187 121.422 9.57145 121.547 9.77979C121.672 9.98291 121.826 10.1418 122.008 10.2563C122.195 10.3709 122.414 10.4282 122.664 10.4282C123.044 10.4282 123.352 10.3475 123.586 10.186C123.82 10.0246 123.99 9.79541 124.094 9.49854C124.198 9.20166 124.242 8.8527 124.227 8.45166V7.83447C124.237 7.49072 124.214 7.18864 124.156 6.92822C124.099 6.6626 124.008 6.44124 123.883 6.26416C123.763 6.08708 123.602 5.95426 123.398 5.86572C123.201 5.77197 122.961 5.7251 122.68 5.7251C122.435 5.7251 122.219 5.78239 122.031 5.89697C121.844 6.01156 121.687 6.17301 121.562 6.38135C121.437 6.58447 121.341 6.82666 121.273 7.10791C121.211 7.38395 121.18 7.68604 121.18 8.01416ZM130.852 3.8501L130.852 12.3032L128.211 12.3032L128.211 3.8501L130.852 3.8501ZM128.055 1.67041C128.055 1.29541 128.19 0.988118 128.461 0.748535C128.732 0.508952 129.083 0.38916 129.516 0.38916C129.948 0.38916 130.299 0.508952 130.57 0.748535C130.841 0.988118 130.977 1.29541 130.977 1.67041C130.977 2.04541 130.841 2.3527 130.57 2.59229C130.299 2.83187 129.948 2.95166 129.516 2.95166C129.083 2.95166 128.732 2.83187 128.461 2.59229C128.19 2.3527 128.055 2.04541 128.055 1.67041ZM136.867 10.1782V6.69385C136.867 6.45426 136.833 6.24854 136.766 6.07666C136.698 5.90479 136.591 5.77197 136.445 5.67822C136.299 5.57926 136.104 5.52979 135.859 5.52979C135.661 5.52979 135.492 5.56364 135.352 5.63135C135.211 5.69906 135.104 5.80062 135.031 5.93604C134.958 6.07145 134.922 6.24333 134.922 6.45166L132.289 6.45166C132.289 6.06104 132.375 5.69906 132.547 5.36572C132.724 5.02718 132.974 4.73291 133.297 4.48291C133.625 4.23291 134.016 4.0402 134.469 3.90479C134.927 3.76416 135.438 3.69385 136 3.69385C136.672 3.69385 137.271 3.80583 137.797 4.02979C138.328 4.25374 138.747 4.58968 139.055 5.0376C139.362 5.48031 139.516 6.0376 139.516 6.70947V10.1704C139.516 10.7225 139.547 11.1418 139.609 11.4282C139.672 11.7095 139.76 11.9569 139.875 12.1704V12.3032L137.234 12.3032C137.109 12.0428 137.016 11.7251 136.953 11.3501C136.896 10.9699 136.867 10.5793 136.867 10.1782ZM137.187 7.13916L137.203 8.54541L136.039 8.54541C135.794 8.54541 135.586 8.57926 135.414 8.64697C135.247 8.71468 135.112 8.80843 135.008 8.92822C134.909 9.04281 134.836 9.17301 134.789 9.31885C134.747 9.46468 134.727 9.61833 134.727 9.77979C134.727 9.93604 134.763 10.0767 134.836 10.2017C134.914 10.3215 135.018 10.4152 135.148 10.4829C135.279 10.5506 135.424 10.5845 135.586 10.5845C135.878 10.5845 136.125 10.5298 136.328 10.4204C136.536 10.3058 136.695 10.1678 136.805 10.0063C136.914 9.84489 136.969 9.69385 136.969 9.55322L137.547 10.6313C137.443 10.8397 137.323 11.0506 137.187 11.2642C137.057 11.4777 136.893 11.6756 136.695 11.8579C136.503 12.035 136.266 12.1808 135.984 12.2954C135.703 12.4048 135.362 12.4595 134.961 12.4595C134.44 12.4595 133.961 12.3527 133.523 12.1392C133.091 11.9256 132.745 11.6287 132.484 11.2485C132.224 10.8631 132.094 10.4204 132.094 9.92041C132.094 9.48291 132.172 9.09229 132.328 8.74854C132.49 8.40479 132.732 8.11312 133.055 7.87354C133.378 7.63395 133.789 7.45166 134.289 7.32666C134.789 7.20166 135.378 7.13916 136.055 7.13916L137.187 7.13916ZM143.758 0.303223L143.758 12.3032L141.117 12.3032L141.117 0.303223L143.758 0.303223ZM154.016 8.73291L154.016 0.928223L156.75 0.928223L156.75 8.73291C156.75 9.49333 156.576 10.1522 156.227 10.7095C155.883 11.2668 155.414 11.6991 154.82 12.0063C154.232 12.3084 153.57 12.4595 152.836 12.4595C152.076 12.4595 151.398 12.3319 150.805 12.0767C150.216 11.8215 149.753 11.4282 149.414 10.897C149.081 10.3657 148.914 9.68864 148.914 8.86572L151.664 8.86572C151.664 9.25114 151.708 9.55322 151.797 9.77197C151.885 9.98551 152.016 10.1366 152.187 10.2251C152.365 10.3084 152.581 10.3501 152.836 10.3501C153.086 10.3501 153.297 10.2876 153.469 10.1626C153.646 10.0324 153.781 9.84749 153.875 9.60791C153.969 9.36312 154.016 9.07145 154.016 8.73291ZM163.305 10.2485L163.305 3.8501L165.945 3.8501L165.945 12.3032L163.477 12.3032L163.305 10.2485ZM163.555 8.52979L164.242 8.51416C164.242 9.08187 164.174 9.60791 164.039 10.0923C163.904 10.5715 163.703 10.9881 163.437 11.3423C163.177 11.6965 162.854 11.9725 162.469 12.1704C162.089 12.3631 161.648 12.4595 161.148 12.4595C160.732 12.4595 160.349 12.4022 160 12.2876C159.656 12.1678 159.359 11.9829 159.109 11.7329C158.859 11.4777 158.664 11.1522 158.523 10.7563C158.388 10.3553 158.32 9.87614 158.32 9.31885L158.32 3.8501L160.953 3.8501L160.953 9.33447C160.953 9.52197 160.977 9.68343 161.023 9.81885C161.07 9.95426 161.138 10.0688 161.227 10.1626C161.315 10.2511 161.424 10.3188 161.555 10.3657C161.69 10.4074 161.844 10.4282 162.016 10.4282C162.411 10.4282 162.721 10.3449 162.945 10.1782C163.169 10.0116 163.326 9.78499 163.414 9.49854C163.508 9.21208 163.555 8.88916 163.555 8.52979ZM169.984 5.65479V12.3032L167.352 12.3032L167.352 3.8501L169.82 3.8501L169.984 5.65479ZM169.672 7.7876L169.055 7.80322C169.055 7.15739 169.133 6.58187 169.289 6.07666C169.445 5.56624 169.667 5.13395 169.953 4.77979C170.24 4.42562 170.581 4.15739 170.977 3.9751C171.378 3.7876 171.823 3.69385 172.312 3.69385C172.703 3.69385 173.06 3.75114 173.383 3.86572C173.711 3.98031 173.992 4.1652 174.227 4.42041C174.466 4.67562 174.648 5.01416 174.773 5.43604C174.904 5.8527 174.969 6.36833 174.969 6.98291V12.3032L172.32 12.3032V6.9751C172.32 6.63656 172.273 6.37874 172.18 6.20166C172.086 6.01937 171.951 5.89437 171.773 5.82666C171.596 5.75895 171.38 5.7251 171.125 5.7251C170.854 5.7251 170.625 5.77718 170.437 5.88135C170.25 5.98551 170.099 6.13135 169.984 6.31885C169.875 6.50114 169.794 6.71729 169.742 6.96729C169.695 7.21729 169.672 7.49072 169.672 7.7876ZM181.742 3.8501L184.133 3.8501L184.133 11.9751C184.133 12.7563 183.953 13.4178 183.594 13.9595C183.234 14.5063 182.732 14.9204 182.086 15.2017C181.445 15.4881 180.695 15.6313 179.836 15.6313C179.456 15.6313 179.068 15.5819 178.672 15.4829C178.276 15.3892 177.906 15.2485 177.562 15.061C177.219 14.8735 176.93 14.6418 176.695 14.3657L177.797 12.8188C178.01 13.0584 178.279 13.2616 178.602 13.4282C178.924 13.6001 179.305 13.686 179.742 13.686C180.122 13.686 180.44 13.6183 180.695 13.4829C180.956 13.3475 181.154 13.1496 181.289 12.8892C181.424 12.634 181.492 12.3241 181.492 11.9595V5.8501L181.742 3.8501ZM176.125 8.17822V8.01416C176.125 7.37354 176.203 6.7902 176.359 6.26416C176.521 5.73291 176.75 5.27718 177.047 4.89697C177.349 4.51156 177.714 4.21468 178.141 4.00635C178.568 3.79801 179.049 3.69385 179.586 3.69385C180.164 3.69385 180.638 3.80583 181.008 4.02979C181.383 4.24854 181.682 4.55583 181.906 4.95166C182.135 5.34749 182.312 5.81104 182.437 6.34229C182.568 6.86833 182.677 7.43604 182.766 8.04541V8.24072C182.677 8.81364 182.555 9.35531 182.398 9.86572C182.247 10.3709 182.049 10.8188 181.805 11.2095C181.56 11.6001 181.253 11.9074 180.883 12.1313C180.518 12.3501 180.081 12.4595 179.57 12.4595C179.039 12.4595 178.56 12.3527 178.133 12.1392C177.711 11.9256 177.349 11.6261 177.047 11.2407C176.75 10.8553 176.521 10.4022 176.359 9.88135C176.203 9.36051 176.125 8.79281 176.125 8.17822ZM178.758 8.01416V8.17822C178.758 8.49593 178.786 8.7902 178.844 9.06104C178.906 9.33187 179 9.57145 179.125 9.77979C179.25 9.98291 179.404 10.1418 179.586 10.2563C179.773 10.3709 179.992 10.4282 180.242 10.4282C180.622 10.4282 180.93 10.3475 181.164 10.186C181.398 10.0246 181.568 9.79541 181.672 9.49854C181.776 9.20166 181.82 8.8527 181.805 8.45166V7.83447C181.815 7.49072 181.792 7.18864 181.734 6.92822C181.677 6.6626 181.586 6.44124 181.461 6.26416C181.341 6.08708 181.18 5.95426 180.977 5.86572C180.779 5.77197 180.539 5.7251 180.258 5.7251C180.013 5.7251 179.797 5.78239 179.609 5.89697C179.422 6.01156 179.266 6.17301 179.141 6.38135C179.016 6.58447 178.919 6.82666 178.852 7.10791C178.789 7.38395 178.758 7.68604 178.758 8.01416ZM188.43 0.303223L188.43 12.3032L185.789 12.3032L185.789 0.303223L188.43 0.303223ZM194.148 12.4595C193.461 12.4595 192.846 12.3527 192.305 12.1392C191.763 11.9204 191.305 11.6209 190.93 11.2407C190.56 10.8605 190.276 10.423 190.078 9.92822C189.885 9.43343 189.789 8.90999 189.789 8.35791V8.06104C189.789 7.44124 189.875 6.86833 190.047 6.34229C190.219 5.81104 190.474 5.34749 190.812 4.95166C191.151 4.55583 191.576 4.24854 192.086 4.02979C192.596 3.80583 193.19 3.69385 193.867 3.69385C194.466 3.69385 195.003 3.7902 195.477 3.98291C195.951 4.17562 196.352 4.45166 196.68 4.81104C197.013 5.17041 197.266 5.60531 197.437 6.11572C197.615 6.62614 197.703 7.19906 197.703 7.83447V8.90479L190.797 8.90479V7.25635L195.133 7.25635V7.05322C195.138 6.77197 195.089 6.53239 194.984 6.33447C194.885 6.13656 194.74 5.98551 194.547 5.88135C194.354 5.77718 194.12 5.7251 193.844 5.7251C193.557 5.7251 193.32 5.7876 193.133 5.9126C192.951 6.0376 192.807 6.20947 192.703 6.42822C192.604 6.64176 192.534 6.88916 192.492 7.17041C192.451 7.45166 192.43 7.74854 192.43 8.06104V8.35791C192.43 8.67041 192.471 8.95426 192.555 9.20947C192.643 9.46468 192.768 9.68343 192.93 9.86572C193.096 10.0428 193.294 10.1808 193.523 10.2798C193.758 10.3787 194.023 10.4282 194.32 10.4282C194.68 10.4282 195.034 10.3605 195.383 10.2251C195.732 10.0897 196.031 9.86572 196.281 9.55322L197.477 10.9751C197.305 11.2199 197.06 11.4569 196.742 11.686C196.43 11.9152 196.055 12.1027 195.617 12.2485C195.18 12.3892 194.69 12.4595 194.148 12.4595ZM207.422 8.44385L204.594 8.44385V6.32666L207.422 6.32666C207.807 6.32666 208.12 6.26156 208.359 6.13135C208.599 6.00114 208.773 5.82145 208.883 5.59229C208.997 5.35791 209.055 5.09489 209.055 4.80322C209.055 4.49072 208.997 4.20166 208.883 3.93604C208.773 3.67041 208.599 3.45687 208.359 3.29541C208.12 3.12874 207.807 3.04541 207.422 3.04541L205.625 3.04541V12.3032L202.883 12.3032V0.928223L207.422 0.928223C208.333 0.928223 209.117 1.09489 209.773 1.42822C210.435 1.76156 210.943 2.21989 211.297 2.80322C211.651 3.38135 211.828 4.04281 211.828 4.7876C211.828 5.52197 211.651 6.1626 211.297 6.70947C210.943 7.25635 210.435 7.68343 209.773 7.99072C209.117 8.29281 208.333 8.44385 207.422 8.44385ZM212.742 8.1626V7.99854C212.742 7.37874 212.831 6.80843 213.008 6.2876C213.185 5.76156 213.445 5.30583 213.789 4.92041C214.133 4.53499 214.557 4.23551 215.062 4.02197C215.568 3.80322 216.151 3.69385 216.812 3.69385C217.479 3.69385 218.065 3.80322 218.57 4.02197C219.081 4.23551 219.508 4.53499 219.852 4.92041C220.195 5.30583 220.456 5.76156 220.633 6.2876C220.81 6.80843 220.898 7.37874 220.898 7.99854V8.1626C220.898 8.77718 220.81 9.34749 220.633 9.87354C220.456 10.3944 220.195 10.8501 219.852 11.2407C219.508 11.6261 219.083 11.9256 218.578 12.1392C218.073 12.3527 217.49 12.4595 216.828 12.4595C216.167 12.4595 215.581 12.3527 215.07 12.1392C214.56 11.9256 214.133 11.6261 213.789 11.2407C213.445 10.8501 213.185 10.3944 213.008 9.87354C212.831 9.34749 212.742 8.77718 212.742 8.1626ZM215.375 7.99854V8.1626C215.375 8.48031 215.398 8.77718 215.445 9.05322C215.492 9.32926 215.57 9.57145 215.68 9.77979C215.789 9.98291 215.938 10.1418 216.125 10.2563C216.312 10.3709 216.547 10.4282 216.828 10.4282C217.104 10.4282 217.333 10.3709 217.516 10.2563C217.703 10.1418 217.852 9.98291 217.961 9.77979C218.07 9.57145 218.148 9.32926 218.195 9.05322C218.242 8.77718 218.266 8.48031 218.266 8.1626V7.99854C218.266 7.69124 218.242 7.40218 218.195 7.13135C218.148 6.85531 218.07 6.61312 217.961 6.40479C217.852 6.19124 217.703 6.02458 217.516 5.90479C217.328 5.78499 217.094 5.7251 216.812 5.7251C216.536 5.7251 216.305 5.78499 216.117 5.90479C215.935 6.02458 215.789 6.19124 215.68 6.40479C215.57 6.61312 215.492 6.85531 215.445 7.13135C215.398 7.40218 215.375 7.69124 215.375 7.99854ZM226.93 10.3657V0.303223L229.578 0.303223V12.3032L227.203 12.3032L226.93 10.3657ZM221.742 8.17822V8.01416C221.742 7.37354 221.812 6.7902 221.953 6.26416C222.094 5.73291 222.302 5.27718 222.578 4.89697C222.854 4.51156 223.198 4.21468 223.609 4.00635C224.021 3.79801 224.495 3.69385 225.031 3.69385C225.51 3.69385 225.93 3.80583 226.289 4.02979C226.648 4.24854 226.956 4.55583 227.211 4.95166C227.466 5.34749 227.674 5.81104 227.836 6.34229C227.997 6.86833 228.12 7.43604 228.203 8.04541V8.24072C228.12 8.81364 227.997 9.35531 227.836 9.86572C227.674 10.3709 227.466 10.8188 227.211 11.2095C226.956 11.6001 226.646 11.9074 226.281 12.1313C225.922 12.3501 225.5 12.4595 225.016 12.4595C224.479 12.4595 224.005 12.3527 223.594 12.1392C223.188 11.9256 222.846 11.6261 222.57 11.2407C222.299 10.8553 222.094 10.4022 221.953 9.88135C221.812 9.36051 221.742 8.79281 221.742 8.17822ZM224.375 8.01416V8.17822C224.375 8.49593 224.396 8.7902 224.438 9.06104C224.479 9.33187 224.549 9.57145 224.648 9.77979C224.753 9.98291 224.888 10.1418 225.055 10.2563C225.227 10.3709 225.438 10.4282 225.688 10.4282C226.026 10.4282 226.305 10.3475 226.523 10.186C226.747 10.0246 226.911 9.79541 227.016 9.49854C227.125 9.20166 227.172 8.8527 227.156 8.45166V7.83447C227.167 7.49072 227.143 7.18864 227.086 6.92822C227.029 6.6626 226.938 6.44124 226.812 6.26416C226.693 6.08708 226.539 5.95426 226.352 5.86572C226.169 5.77197 225.953 5.7251 225.703 5.7251C225.458 5.7251 225.25 5.78239 225.078 5.89697C224.911 6.01156 224.776 6.17301 224.672 6.38135C224.568 6.58447 224.492 6.82666 224.445 7.10791C224.398 7.38395 224.375 7.68604 224.375 8.01416ZM234.641 10.4282C234.885 10.4282 235.094 10.384 235.266 10.2954C235.443 10.2017 235.576 10.0715 235.664 9.90479C235.758 9.73291 235.802 9.52718 235.797 9.2876L238.273 9.2876C238.279 9.92301 238.122 10.4803 237.805 10.9595C237.492 11.4334 237.065 11.8032 236.523 12.0688C235.987 12.3293 235.38 12.4595 234.703 12.4595C234.042 12.4595 233.464 12.3527 232.969 12.1392C232.474 11.9204 232.06 11.6183 231.727 11.2329C231.398 10.8423 231.151 10.3866 230.984 9.86572C230.823 9.34489 230.742 8.77979 230.742 8.17041V7.99072C230.742 7.38135 230.823 6.81624 230.984 6.29541C231.151 5.76937 231.398 5.31364 231.727 4.92822C232.06 4.5376 232.471 4.23551 232.961 4.02197C233.456 3.80322 234.031 3.69385 234.688 3.69385C235.391 3.69385 236.01 3.82666 236.547 4.09229C237.089 4.35791 237.513 4.74333 237.82 5.24854C238.128 5.75374 238.279 6.36572 238.273 7.08447L235.797 7.08447C235.802 6.82926 235.763 6.6001 235.68 6.39697C235.596 6.19385 235.466 6.03239 235.289 5.9126C235.117 5.7876 234.896 5.7251 234.625 5.7251C234.354 5.7251 234.135 5.78499 233.969 5.90479C233.802 6.02458 233.674 6.19124 233.586 6.40479C233.503 6.61312 233.445 6.8527 233.414 7.12354C233.388 7.39437 233.375 7.68343 233.375 7.99072V8.17041C233.375 8.48291 233.388 8.77718 233.414 9.05322C233.445 9.32406 233.505 9.56364 233.594 9.77197C233.682 9.9751 233.81 10.1366 233.977 10.2563C234.143 10.3709 234.365 10.4282 234.641 10.4282ZM243.789 10.1782V6.69385C243.789 6.45426 243.755 6.24854 243.688 6.07666C243.62 5.90479 243.513 5.77197 243.367 5.67822C243.221 5.57926 243.026 5.52979 242.781 5.52979C242.583 5.52979 242.414 5.56364 242.273 5.63135C242.133 5.69906 242.026 5.80062 241.953 5.93604C241.88 6.07145 241.844 6.24333 241.844 6.45166L239.211 6.45166C239.211 6.06104 239.297 5.69906 239.469 5.36572C239.646 5.02718 239.896 4.73291 240.219 4.48291C240.547 4.23291 240.938 4.0402 241.391 3.90479C241.849 3.76416 242.359 3.69385 242.922 3.69385C243.594 3.69385 244.193 3.80583 244.719 4.02979C245.25 4.25374 245.669 4.58968 245.977 5.0376C246.284 5.48031 246.438 6.0376 246.438 6.70947V10.1704C246.438 10.7225 246.469 11.1418 246.531 11.4282C246.594 11.7095 246.682 11.9569 246.797 12.1704V12.3032L244.156 12.3032C244.031 12.0428 243.938 11.7251 243.875 11.3501C243.818 10.9699 243.789 10.5793 243.789 10.1782ZM244.109 7.13916L244.125 8.54541L242.961 8.54541C242.716 8.54541 242.508 8.57926 242.336 8.64697C242.169 8.71468 242.034 8.80843 241.93 8.92822C241.831 9.04281 241.758 9.17301 241.711 9.31885C241.669 9.46468 241.648 9.61833 241.648 9.77979C241.648 9.93604 241.685 10.0767 241.758 10.2017C241.836 10.3215 241.94 10.4152 242.07 10.4829C242.201 10.5506 242.346 10.5845 242.508 10.5845C242.799 10.5845 243.047 10.5298 243.25 10.4204C243.458 10.3058 243.617 10.1678 243.727 10.0063C243.836 9.84489 243.891 9.69385 243.891 9.55322L244.469 10.6313C244.365 10.8397 244.245 11.0506 244.109 11.2642C243.979 11.4777 243.815 11.6756 243.617 11.8579C243.424 12.035 243.188 12.1808 242.906 12.2954C242.625 12.4048 242.284 12.4595 241.883 12.4595C241.362 12.4595 240.883 12.3527 240.445 12.1392C240.013 11.9256 239.667 11.6287 239.406 11.2485C239.146 10.8631 239.016 10.4204 239.016 9.92041C239.016 9.48291 239.094 9.09229 239.25 8.74854C239.411 8.40479 239.654 8.11312 239.977 7.87354C240.299 7.63395 240.711 7.45166 241.211 7.32666C241.711 7.20166 242.299 7.13916 242.977 7.13916L244.109 7.13916ZM252.328 9.92822C252.328 9.78239 252.279 9.65739 252.18 9.55322C252.086 9.44385 251.919 9.34489 251.68 9.25635C251.44 9.1626 251.104 9.06885 250.672 8.9751C250.26 8.88656 249.872 8.76937 249.508 8.62354C249.148 8.4777 248.833 8.30062 248.562 8.09229C248.292 7.88395 248.078 7.63656 247.922 7.3501C247.771 7.06364 247.695 6.73551 247.695 6.36572C247.695 6.00635 247.771 5.66781 247.922 5.3501C248.078 5.02718 248.305 4.74333 248.602 4.49854C248.904 4.24854 249.271 4.05322 249.703 3.9126C250.135 3.76676 250.628 3.69385 251.18 3.69385C251.94 3.69385 252.596 3.81104 253.148 4.04541C253.701 4.27458 254.125 4.59749 254.422 5.01416C254.724 5.42562 254.875 5.90218 254.875 6.44385L252.242 6.44385C252.242 6.23031 252.206 6.04801 252.133 5.89697C252.065 5.74593 251.953 5.63135 251.797 5.55322C251.641 5.46989 251.432 5.42822 251.172 5.42822C250.99 5.42822 250.823 5.46208 250.672 5.52979C250.526 5.59749 250.409 5.69124 250.32 5.81104C250.232 5.93083 250.188 6.07145 250.188 6.23291C250.188 6.34749 250.214 6.45166 250.266 6.54541C250.323 6.63395 250.409 6.71729 250.523 6.79541C250.638 6.86833 250.784 6.93604 250.961 6.99854C251.138 7.05583 251.352 7.10791 251.602 7.15479C252.169 7.25895 252.701 7.40739 253.195 7.6001C253.69 7.79281 254.091 8.06624 254.398 8.42041C254.711 8.77458 254.867 9.25114 254.867 9.8501C254.867 10.2251 254.781 10.5715 254.609 10.8892C254.438 11.2017 254.19 11.4777 253.867 11.7173C253.544 11.9517 253.156 12.134 252.703 12.2642C252.25 12.3944 251.74 12.4595 251.172 12.4595C250.365 12.4595 249.682 12.3162 249.125 12.0298C248.568 11.7381 248.146 11.3735 247.859 10.936C247.578 10.4933 247.438 10.0454 247.438 9.59229L249.891 9.59229C249.901 9.8527 249.964 10.0662 250.078 10.2329C250.198 10.3996 250.357 10.522 250.555 10.6001C250.753 10.6782 250.982 10.7173 251.242 10.7173C251.482 10.7173 251.68 10.6834 251.836 10.6157C251.997 10.548 252.12 10.4569 252.203 10.3423C252.286 10.2225 252.328 10.0845 252.328 9.92822ZM260.555 3.8501V5.67822L255.461 5.67822V3.8501L260.555 3.8501ZM256.531 1.74854L259.164 1.74854V9.54541C259.164 9.76937 259.19 9.94385 259.242 10.0688C259.294 10.1886 259.383 10.2746 259.508 10.3267C259.638 10.3735 259.81 10.397 260.023 10.397C260.174 10.397 260.299 10.3944 260.398 10.3892C260.497 10.3787 260.591 10.3657 260.68 10.3501V12.2329C260.456 12.3058 260.221 12.3605 259.977 12.397C259.732 12.4386 259.471 12.4595 259.195 12.4595C258.633 12.4595 258.151 12.3709 257.75 12.1938C257.354 12.0168 257.052 11.7381 256.844 11.3579C256.635 10.9777 256.531 10.4829 256.531 9.87354V1.74854Z" fill="#CF1738"/>
</svg>
