<svg width="97" height="37" viewBox="0 0 97 37" fill="none" xmlns="http://www.w3.org/2000/svg">
<g clip-path="url(#clip0_4634_4403)">
<path d="M85.0984 8.71589C85.0984 7.1311 86.4024 6.4519 87.6711 6.4519C90.0775 6.4519 90.0775 9.52446 90.1178 11.3788H96.9597C96.9597 4.8725 93.9592 0.263672 87.5452 0.263672C81.7605 0.263672 78.2162 3.69739 78.2162 9.97726C78.2162 21.281 90.1178 20.2407 90.1178 26.5691C90.1178 28.197 89.4029 30.0028 87.6308 30.0028C84.2073 30.0028 84.6755 26.4343 84.6755 23.8577H77.7933V27.5178C77.7933 33.5281 82.3546 36.1479 87.4596 36.1479C93.5816 36.1479 97 32.4878 97 25.933C97 13.19 85.0984 15.993 85.0984 8.71589ZM60.7011 21.3241H60.6156L56.7742 1.07763H46.3024V35.3339H53.3558L52.6812 8.48949H52.7617L57.8717 35.3339H63.3997L68.6355 8.48949H68.7211L67.9609 35.3339H75.0546V1.07763H64.6684L60.7011 21.3241ZM35.7501 35.3339H42.4661V9.75625H35.7501V35.3339ZM35.7501 7.26586H42.4661V1.07763H35.7501V7.26586ZM24.946 35.3339H31.657V9.75625H24.946V35.3339ZM24.946 7.26586H31.657V1.07763H24.946V7.26586ZM6.92246 1.07763L0 35.3339H7.47122L8.3573 28.6929H14.1822L15.2395 35.3339H22.756L15.8738 1.07763H6.92246ZM9.16282 22.634L11.3126 7.31438H11.3981L13.4673 22.634H9.16282Z" fill="white"/>
</g>
<defs>
<clipPath id="clip0_4634_4403">
<rect width="97" height="35.8842" fill="white" transform="translate(0 0.263672)"/>
</clipPath>
</defs>
</svg>
