<svg width="167" height="27" viewBox="0 0 167 27" fill="none" xmlns="http://www.w3.org/2000/svg">
<path d="M4.06094 0.902872C4.25294 0.830872 4.43294 0.794871 4.60094 0.794871H8.95694C9.07694 0.794871 9.17294 0.842871 9.24494 0.938872C9.34094 1.01087 9.38894 1.10687 9.38894 1.22687V25.5629C9.38894 25.6829 9.34094 25.7909 9.24494 25.8869C9.17294 25.9589 9.07694 25.9949 8.95694 25.9949H4.74494C4.62494 25.9949 4.51694 25.9589 4.42094 25.8869C4.34894 25.7909 4.31294 25.6829 4.31294 25.5629V5.90687C4.31294 5.81087 4.25294 5.76287 4.13294 5.76287L1.36094 6.08687H1.28894C1.02494 6.08687 0.892938 5.95487 0.892938 5.69087L0.784938 2.59487C0.784938 2.35487 0.892938 2.18687 1.10894 2.09087L4.06094 0.902872ZM25.0554 15.3389C25.1754 16.2509 25.2354 17.1389 25.2354 18.0029C25.2354 19.0589 25.1874 19.9589 25.0914 20.7029C24.8994 22.4309 24.2274 23.7989 23.0754 24.8069C21.9474 25.7909 20.4234 26.2829 18.5034 26.2829C16.5114 26.2829 14.8914 25.7549 13.6434 24.6989C12.3954 23.6429 11.7234 22.2389 11.6274 20.4869C11.5554 19.8389 11.5194 19.1429 11.5194 18.3989C11.5194 18.1109 11.6634 17.9669 11.9514 17.9669H16.1634C16.4514 17.9669 16.5954 18.1109 16.5954 18.3989C16.5954 18.9509 16.6314 19.4669 16.7034 19.9469C16.7754 20.5709 16.9674 21.0629 17.2794 21.4229C17.5914 21.7589 17.9994 21.9269 18.5034 21.9269C18.9834 21.9269 19.3794 21.7589 19.6914 21.4229C20.0034 21.0869 20.2074 20.6309 20.3034 20.0549C20.3754 19.2149 20.4114 18.3509 20.4114 17.4629C20.4114 16.3349 20.3514 15.4469 20.2314 14.7989C20.1354 14.2469 19.9314 13.8269 19.6194 13.5389C19.3314 13.2269 18.9594 13.0709 18.5034 13.0709C18.1434 13.0709 17.7834 13.2269 17.4234 13.5389C17.2794 13.6349 17.1834 13.6829 17.1354 13.6829C17.0394 13.6829 16.9314 13.6229 16.8114 13.5029L14.6514 11.3069C14.5554 11.2109 14.5074 11.1029 14.5074 10.9829C14.5074 10.8869 14.5434 10.7909 14.6154 10.6949L18.9714 5.33087C19.0194 5.28287 19.0314 5.23487 19.0074 5.18687C18.9834 5.13887 18.9354 5.11487 18.8634 5.11487H12.3834C12.2634 5.11487 12.1554 5.07887 12.0594 5.00687C11.9874 4.91087 11.9514 4.80287 11.9514 4.68287V1.22687C11.9514 1.10687 11.9874 1.01087 12.0594 0.938872C12.1554 0.842871 12.2634 0.794871 12.3834 0.794871H24.7674C24.8874 0.794871 24.9834 0.842871 25.0554 0.938872C25.1514 1.01087 25.1994 1.10687 25.1994 1.22687V4.82687C25.1994 5.01887 25.1394 5.19887 25.0194 5.36687L20.9874 10.4429C20.9634 10.4909 20.9514 10.5389 20.9514 10.5869C20.9514 10.6349 20.9754 10.6589 21.0234 10.6589C22.0794 10.7549 22.9674 11.2349 23.6874 12.0989C24.4314 12.9629 24.8874 14.0429 25.0554 15.3389ZM34.5071 26.3909C32.3951 26.3909 30.6911 25.7309 29.3951 24.4109C28.0991 23.0669 27.4511 21.3029 27.4511 19.1189V7.67087C27.4511 5.48687 28.0991 3.73487 29.3951 2.41487C30.6911 1.07087 32.3951 0.398872 34.5071 0.398872C35.8991 0.398872 37.1351 0.698872 38.2151 1.29887C39.2951 1.89887 40.1231 2.75087 40.6991 3.85487C41.2991 4.95887 41.5991 6.23087 41.5991 7.67087V19.1189C41.5991 20.5589 41.2991 21.8309 40.6991 22.9349C40.1231 24.0389 39.2951 24.8909 38.2151 25.4909C37.1351 26.0909 35.8991 26.3909 34.5071 26.3909ZM34.5071 22.0349C35.1071 22.0349 35.5871 21.7949 35.9471 21.3149C36.3311 20.8349 36.5231 20.1989 36.5231 19.4069V7.38287C36.5231 6.59087 36.3311 5.95487 35.9471 5.47487C35.5871 4.99487 35.1071 4.75487 34.5071 4.75487C33.9071 4.75487 33.4271 4.99487 33.0671 5.47487C32.7071 5.95487 32.5271 6.59087 32.5271 7.38287V19.4069C32.5271 20.1989 32.7071 20.8349 33.0671 21.3149C33.4271 21.7949 33.9071 22.0349 34.5071 22.0349ZM50.8196 26.3909C48.7076 26.3909 47.0036 25.7309 45.7076 24.4109C44.4116 23.0669 43.7636 21.3029 43.7636 19.1189V7.67087C43.7636 5.48687 44.4116 3.73487 45.7076 2.41487C47.0036 1.07087 48.7076 0.398872 50.8196 0.398872C52.2116 0.398872 53.4476 0.698872 54.5276 1.29887C55.6076 1.89887 56.4356 2.75087 57.0116 3.85487C57.6116 4.95887 57.9116 6.23087 57.9116 7.67087V19.1189C57.9116 20.5589 57.6116 21.8309 57.0116 22.9349C56.4356 24.0389 55.6076 24.8909 54.5276 25.4909C53.4476 26.0909 52.2116 26.3909 50.8196 26.3909ZM50.8196 22.0349C51.4196 22.0349 51.8996 21.7949 52.2596 21.3149C52.6436 20.8349 52.8356 20.1989 52.8356 19.4069V7.38287C52.8356 6.59087 52.6436 5.95487 52.2596 5.47487C51.8996 4.99487 51.4196 4.75487 50.8196 4.75487C50.2196 4.75487 49.7396 4.99487 49.3796 5.47487C49.0196 5.95487 48.8396 6.59087 48.8396 7.38287V19.4069C48.8396 20.1989 49.0196 20.8349 49.3796 21.3149C49.7396 21.7949 50.2196 22.0349 50.8196 22.0349ZM80.5671 15.3389C80.6871 16.2509 80.7471 17.1389 80.7471 18.0029C80.7471 19.0589 80.6991 19.9589 80.6031 20.7029C80.4111 22.4309 79.7391 23.7989 78.5871 24.8069C77.4591 25.7909 75.9351 26.2829 74.0151 26.2829C72.0231 26.2829 70.4031 25.7549 69.1551 24.6989C67.9071 23.6429 67.2351 22.2389 67.1391 20.4869C67.0671 19.8389 67.0311 19.1429 67.0311 18.3989C67.0311 18.1109 67.1751 17.9669 67.4631 17.9669H71.6751C71.9631 17.9669 72.1071 18.1109 72.1071 18.3989C72.1071 18.9509 72.1431 19.4669 72.2151 19.9469C72.2871 20.5709 72.4791 21.0629 72.7911 21.4229C73.1031 21.7589 73.5111 21.9269 74.0151 21.9269C74.4951 21.9269 74.8911 21.7589 75.2031 21.4229C75.5151 21.0869 75.7191 20.6309 75.8151 20.0549C75.8871 19.2149 75.9231 18.3509 75.9231 17.4629C75.9231 16.3349 75.8631 15.4469 75.7431 14.7989C75.6471 14.2469 75.4431 13.8269 75.1311 13.5389C74.8431 13.2269 74.4711 13.0709 74.0151 13.0709C73.6551 13.0709 73.2951 13.2269 72.9351 13.5389C72.7911 13.6349 72.6951 13.6829 72.6471 13.6829C72.5511 13.6829 72.4431 13.6229 72.3231 13.5029L70.1631 11.3069C70.0671 11.2109 70.0191 11.1029 70.0191 10.9829C70.0191 10.8869 70.0551 10.7909 70.1271 10.6949L74.4831 5.33087C74.5311 5.28287 74.5431 5.23487 74.5191 5.18687C74.4951 5.13887 74.4471 5.11487 74.3751 5.11487H67.8951C67.7751 5.11487 67.6671 5.07887 67.5711 5.00687C67.4991 4.91087 67.4631 4.80287 67.4631 4.68287V1.22687C67.4631 1.10687 67.4991 1.01087 67.5711 0.938872C67.6671 0.842871 67.7751 0.794871 67.8951 0.794871H80.2791C80.3991 0.794871 80.4951 0.842871 80.5671 0.938872C80.6631 1.01087 80.7111 1.10687 80.7111 1.22687V4.82687C80.7111 5.01887 80.6511 5.19887 80.5311 5.36687L76.4991 10.4429C76.4751 10.4909 76.4631 10.5389 76.4631 10.5869C76.4631 10.6349 76.4871 10.6589 76.5351 10.6589C77.5911 10.7549 78.4791 11.2349 79.1991 12.0989C79.9431 12.9629 80.3991 14.0429 80.5671 15.3389ZM96.3908 19.8389C96.4148 21.8069 95.7908 23.3789 94.5188 24.5549C93.2708 25.7069 91.6028 26.2829 89.5148 26.2829C87.5468 26.2829 85.9508 25.7069 84.7268 24.5549C83.5028 23.3789 82.8908 21.8069 82.8908 19.8389V18.7589C82.8908 18.6389 82.9268 18.5429 82.9988 18.4709C83.0948 18.3749 83.2028 18.3269 83.3228 18.3269H87.5348C87.6548 18.3269 87.7508 18.3749 87.8228 18.4709C87.9188 18.5429 87.9668 18.6389 87.9668 18.7589V19.5509C87.9668 20.1989 88.1108 20.7389 88.3988 21.1709C88.7108 21.6029 89.0828 21.8189 89.5148 21.8189C90.0428 21.8189 90.4628 21.6149 90.7748 21.2069C91.1108 20.7749 91.2788 20.2229 91.2788 19.5509V15.9509C91.2788 15.8789 91.2548 15.8429 91.2068 15.8429C91.1588 15.8189 91.1108 15.8309 91.0628 15.8789C90.2948 16.5269 89.4068 16.8509 88.3988 16.8509C86.7188 16.8509 85.3628 16.2989 84.3308 15.1949C83.3228 14.0909 82.7588 12.6149 82.6388 10.7669C82.5668 10.1189 82.5308 9.41087 82.5308 8.64287C82.5308 8.11487 82.5548 7.39487 82.6028 6.48287C82.6748 4.58687 83.3228 3.12287 84.5468 2.09087C85.7708 1.03487 87.4028 0.506873 89.4428 0.506873C91.3628 0.506873 92.9108 0.986872 94.0868 1.94687C95.2868 2.90687 95.9948 4.33487 96.2108 6.23087C96.3068 6.99887 96.3548 7.65887 96.3548 8.21087L96.3908 19.8389ZM91.2068 11.1629C91.2548 10.5389 91.2788 9.81887 91.2788 9.00287C91.2788 8.11487 91.2548 7.37087 91.2068 6.77087C91.1348 6.14687 90.9428 5.66687 90.6308 5.33087C90.3428 4.99487 89.9588 4.82687 89.4788 4.82687C88.9988 4.82687 88.6028 5.00687 88.2908 5.36687C88.0028 5.72687 87.8228 6.23087 87.7508 6.87887C87.7028 7.45487 87.6788 8.16287 87.6788 9.00287C87.6788 9.55487 87.7148 10.2989 87.7868 11.2349C87.8828 11.7869 88.0748 12.2189 88.3628 12.5309C88.6508 12.8429 89.0228 12.9989 89.4788 12.9989C89.9348 12.9989 90.3068 12.8429 90.5948 12.5309C90.9068 12.1949 91.1108 11.7389 91.2068 11.1629ZM100.875 25.9949C100.731 25.9949 100.623 25.9469 100.551 25.8509C100.479 25.7549 100.467 25.6349 100.515 25.4909L106.383 5.36687C106.431 5.22287 106.383 5.15087 106.239 5.15087H102.279C102.159 5.15087 102.099 5.21087 102.099 5.33087V6.59087C102.099 6.71087 102.051 6.81887 101.955 6.91487C101.883 6.98687 101.787 7.02287 101.667 7.02287H98.4273C98.3073 7.02287 98.1993 6.98687 98.1033 6.91487C98.0313 6.81887 97.9953 6.71087 97.9953 6.59087L98.0313 1.22687C98.0313 1.10687 98.0673 1.01087 98.1393 0.938872C98.2353 0.842871 98.3433 0.794871 98.4633 0.794871H111.387C111.507 0.794871 111.603 0.842871 111.675 0.938872C111.771 1.01087 111.819 1.10687 111.819 1.22687V4.89887C111.819 4.99487 111.795 5.16287 111.747 5.40287L105.807 25.6349C105.735 25.8749 105.579 25.9949 105.339 25.9949H100.875ZM134.263 16.0229C134.359 16.5989 134.407 17.3069 134.407 18.1469C134.407 18.6749 134.383 19.3949 134.335 20.3069C134.263 22.2029 133.615 23.6789 132.391 24.7349C131.167 25.7669 129.535 26.2829 127.495 26.2829C125.575 26.2829 124.015 25.8029 122.815 24.8429C121.639 23.8829 120.943 22.4549 120.727 20.5589C120.631 20.0549 120.583 19.3949 120.583 18.5789L120.511 6.95087C120.511 4.98287 121.135 3.42287 122.383 2.27087C123.655 1.09487 125.335 0.506873 127.423 0.506873C129.367 0.506873 130.951 1.09487 132.175 2.27087C133.423 3.44687 134.047 5.00687 134.047 6.95087V8.03087C134.047 8.15087 133.999 8.25887 133.903 8.35487C133.831 8.42687 133.735 8.46287 133.615 8.46287H129.403C129.283 8.46287 129.175 8.42687 129.079 8.35487C129.007 8.25887 128.971 8.15087 128.971 8.03087V7.23887C128.971 6.59087 128.815 6.05087 128.503 5.61887C128.191 5.18687 127.831 4.97087 127.423 4.97087C126.895 4.97087 126.463 5.18687 126.127 5.61887C125.791 6.02687 125.623 6.56687 125.623 7.23887V10.8749C125.623 10.9469 125.647 10.9949 125.695 11.0189C125.743 11.0189 125.791 10.9949 125.839 10.9469C126.631 10.2749 127.531 9.93887 128.539 9.93887C130.219 9.93887 131.563 10.4909 132.571 11.5949C133.603 12.6989 134.167 14.1749 134.263 16.0229ZM129.187 19.9109C129.235 18.7589 129.259 18.0509 129.259 17.7869C129.259 17.1389 129.211 16.3949 129.115 15.5549C129.043 15.0029 128.863 14.5709 128.575 14.2589C128.287 13.9469 127.915 13.7909 127.459 13.7909C126.979 13.7909 126.583 13.9589 126.271 14.2949C125.983 14.6069 125.803 15.0509 125.731 15.6269C125.659 16.5629 125.623 17.2829 125.623 17.7869C125.623 18.3629 125.659 19.1069 125.731 20.0189C125.803 20.6429 125.983 21.1229 126.271 21.4589C126.583 21.7949 126.979 21.9629 127.459 21.9629C127.939 21.9629 128.323 21.7829 128.611 21.4229C128.923 21.0629 129.115 20.5589 129.187 19.9109ZM143.386 26.3909C141.274 26.3909 139.57 25.7309 138.274 24.4109C136.978 23.0669 136.33 21.3029 136.33 19.1189V7.67087C136.33 5.48687 136.978 3.73487 138.274 2.41487C139.57 1.07087 141.274 0.398872 143.386 0.398872C144.778 0.398872 146.014 0.698872 147.094 1.29887C148.174 1.89887 149.002 2.75087 149.578 3.85487C150.178 4.95887 150.478 6.23087 150.478 7.67087V19.1189C150.478 20.5589 150.178 21.8309 149.578 22.9349C149.002 24.0389 148.174 24.8909 147.094 25.4909C146.014 26.0909 144.778 26.3909 143.386 26.3909ZM143.386 22.0349C143.986 22.0349 144.466 21.7949 144.826 21.3149C145.21 20.8349 145.402 20.1989 145.402 19.4069V7.38287C145.402 6.59087 145.21 5.95487 144.826 5.47487C144.466 4.99487 143.986 4.75487 143.386 4.75487C142.786 4.75487 142.306 4.99487 141.946 5.47487C141.586 5.95487 141.406 6.59087 141.406 7.38287V19.4069C141.406 20.1989 141.586 20.8349 141.946 21.3149C142.306 21.7949 142.786 22.0349 143.386 22.0349ZM165.927 15.3389C166.047 16.2509 166.107 17.1389 166.107 18.0029C166.107 19.0589 166.059 19.9589 165.963 20.7029C165.771 22.4309 165.099 23.7989 163.947 24.8069C162.819 25.7909 161.295 26.2829 159.375 26.2829C157.383 26.2829 155.763 25.7549 154.515 24.6989C153.267 23.6429 152.595 22.2389 152.499 20.4869C152.427 19.8389 152.391 19.1429 152.391 18.3989C152.391 18.1109 152.535 17.9669 152.823 17.9669H157.035C157.323 17.9669 157.467 18.1109 157.467 18.3989C157.467 18.9509 157.503 19.4669 157.575 19.9469C157.647 20.5709 157.839 21.0629 158.151 21.4229C158.463 21.7589 158.871 21.9269 159.375 21.9269C159.855 21.9269 160.251 21.7589 160.562 21.4229C160.875 21.0869 161.079 20.6309 161.175 20.0549C161.247 19.2149 161.283 18.3509 161.283 17.4629C161.283 16.3349 161.223 15.4469 161.103 14.7989C161.007 14.2469 160.803 13.8269 160.491 13.5389C160.203 13.2269 159.831 13.0709 159.375 13.0709C159.015 13.0709 158.655 13.2269 158.295 13.5389C158.151 13.6349 158.055 13.6829 158.007 13.6829C157.911 13.6829 157.803 13.6229 157.683 13.5029L155.523 11.3069C155.427 11.2109 155.379 11.1029 155.379 10.9829C155.379 10.8869 155.415 10.7909 155.487 10.6949L159.843 5.33087C159.891 5.28287 159.903 5.23487 159.879 5.18687C159.855 5.13887 159.807 5.11487 159.735 5.11487H153.255C153.135 5.11487 153.027 5.07887 152.931 5.00687C152.859 4.91087 152.823 4.80287 152.823 4.68287V1.22687C152.823 1.10687 152.859 1.01087 152.931 0.938872C153.027 0.842871 153.135 0.794871 153.255 0.794871H165.639C165.759 0.794871 165.855 0.842871 165.927 0.938872C166.023 1.01087 166.071 1.10687 166.071 1.22687V4.82687C166.071 5.01887 166.011 5.19887 165.891 5.36687L161.859 10.4429C161.835 10.4909 161.823 10.5389 161.823 10.5869C161.823 10.6349 161.847 10.6589 161.895 10.6589C162.951 10.7549 163.839 11.2349 164.559 12.0989C165.303 12.9629 165.759 14.0429 165.927 15.3389Z" fill="white"/>
</svg>
