<svg width="388" height="792" viewBox="0 0 388 792" fill="none" xmlns="http://www.w3.org/2000/svg">
<path d="M385.248 221.538H386.624C387.384 221.538 388 222.158 388 222.923V306C388 306.765 387.384 307.384 386.624 307.384H385.248V221.538Z" fill="#213744"/>
<path d="M2.75171 325.846L1.37582 325.846C0.615936 325.846 -6.87727e-05 325.226 -6.87063e-05 324.462L-6.42157e-05 272.769C-6.41493e-05 272.005 0.615941 271.385 1.37582 271.385L2.75171 271.385L2.75171 325.846Z" fill="#213744"/>
<path d="M2.75195 256.615L1.37606 256.615C0.61618 256.615 0.000175368 255.995 0.000175434 255.231L0.000179925 203.538C0.000179991 202.774 0.616185 202.154 1.37607 202.154L2.75196 202.154L2.75195 256.615Z" fill="#213744"/>
<path d="M2.75171 178.154L1.37582 178.154C0.61594 178.154 -6.61484e-05 177.534 -6.6082e-05 176.769L-6.40773e-05 153.692C-6.40109e-05 152.928 0.615941 152.308 1.37582 152.308L2.75171 152.308L2.75171 178.154Z" fill="#213744"/>
<path d="M2.75171 84C2.75171 61.6646 2.75171 50.4969 5.66981 41.459C11.5675 23.1927 25.7982 8.87168 43.9493 2.93661C52.9303 0 64.0276 0 86.2222 0H301.778C323.972 0 335.07 0 344.051 2.93661C362.202 8.87168 376.432 23.1927 382.33 41.459C385.248 50.4969 385.248 61.6646 385.248 84V708C385.248 730.335 385.248 741.503 382.33 750.541C376.432 768.807 362.202 783.128 344.051 789.063C335.07 792 323.972 792 301.778 792H86.2222C64.0276 792 52.9303 792 43.9493 789.063C25.7982 783.128 11.5675 768.807 5.66981 750.541C2.75171 741.503 2.75171 730.335 2.75171 708V84Z" fill="#383838"/>
<path fill-rule="evenodd" clip-rule="evenodd" d="M302.145 1.84617H85.8552C63.9307 1.84617 53.186 1.85756 44.5162 4.69242C26.9236 10.4449 13.1307 24.3253 7.41451 42.0295C4.59752 50.7543 4.5862 61.5672 4.5862 83.6307V708.369C4.5862 730.433 4.59752 741.246 7.41451 749.971C13.1307 767.675 26.9236 781.555 44.5162 787.308C53.186 790.142 63.9307 790.154 85.8552 790.154H302.145C324.069 790.154 334.814 790.142 343.484 787.308C361.076 781.555 374.869 767.675 380.585 749.971C383.402 741.246 383.414 730.433 383.414 708.369V83.6308C383.414 61.5672 383.402 50.7543 380.585 42.0295C374.869 24.3253 361.076 10.4449 343.484 4.69242C334.814 1.85756 324.069 1.84617 302.145 1.84617ZM6.54215 41.7442C3.66895 50.6432 3.66895 61.639 3.66895 83.6307V708.369C3.66895 730.361 3.66895 741.357 6.54215 750.256C12.3491 768.241 26.3609 782.342 44.2328 788.185C53.0756 791.077 64.0021 791.077 85.8552 791.077H302.145C323.998 791.077 334.924 791.077 343.767 788.185C361.639 782.342 375.651 768.241 381.458 750.256C384.331 741.357 384.331 730.361 384.331 708.369V83.6308C384.331 61.639 384.331 50.6432 381.458 41.7442C375.651 23.759 361.639 9.65829 343.767 3.81453C334.924 0.923096 323.998 0.923096 302.145 0.923096H85.8552C64.0021 0.923096 53.0756 0.923096 44.2328 3.81453C26.3609 9.65829 12.3491 23.759 6.54215 41.7442Z" fill="#121515"/>
<path d="M7.33789 82.1539C7.33789 61.5367 7.33789 51.228 10.0315 42.8853C15.4755 26.0241 28.6116 12.8047 45.3665 7.32619C53.6566 4.61548 63.9002 4.61548 84.3875 4.61548H303.612C324.099 4.61548 334.343 4.61548 342.633 7.32619C359.388 12.8047 372.524 26.0241 377.968 42.8853C380.662 51.228 380.662 61.5367 380.662 82.1539V709.846C380.662 730.464 380.662 740.772 377.968 749.115C372.524 765.976 359.388 779.195 342.633 784.674C334.343 787.385 324.099 787.385 303.612 787.385H84.3875C63.9002 787.385 53.6566 787.385 45.3665 784.674C28.6116 779.195 15.4755 765.976 10.0315 749.115C7.33789 740.772 7.33789 730.464 7.33789 709.846V82.1539Z" fill="url(#paint0_linear_1812_3117)"/>
<path d="M303.612 0H309.116V4.61538H303.612V0Z" fill="#36454C"/>
<path d="M380.662 79.3845H385.248V84.923H380.662V79.3845Z" fill="#36454C"/>
<path d="M2.75171 79.3845H7.338V84.923H2.75171V79.3845Z" fill="#36454C"/>
<path d="M2.75171 707.077H7.338V712.615H2.75171V707.077Z" fill="#36454C"/>
<path d="M380.662 707.077H385.248V712.615H380.662V707.077Z" fill="#36454C"/>
<path d="M78.8843 787.385H84.3878V792H78.8843V787.385Z" fill="#36454C"/>
<mask id="mask0_1812_3117" style="mask-type:alpha" maskUnits="userSpaceOnUse" x="20" y="17" width="348" height="758">
<path d="M109.154 27.0463C109.154 36.5796 117.039 44.3078 126.582 44.3078H261.418C270.961 44.3078 278.846 36.5796 278.846 27.0463V22.3386C278.846 19.7386 280.83 17.5386 283.433 17.5386H304.447C323.321 17.5386 332.758 17.5386 340.264 20.461C351.586 24.8688 360.536 33.876 364.916 45.2696C367.82 52.8236 367.82 62.3204 367.82 81.314V710.686C367.82 729.68 367.82 739.177 364.916 746.731C360.536 758.124 351.586 767.131 340.264 771.539C332.758 774.462 323.321 774.462 304.447 774.462H83.553C64.6792 774.462 55.2422 774.462 47.7358 771.539C36.4141 767.131 27.4637 758.124 23.0837 746.731C20.1797 739.177 20.1797 729.68 20.1797 710.686V81.314C20.1797 62.3204 20.1797 52.8236 23.0837 45.2696C27.4637 33.876 36.4141 24.8688 47.7358 20.461C55.2422 17.5386 64.6792 17.5386 83.553 17.5386H104.567C107.17 17.5386 109.154 19.7386 109.154 22.3386V27.0463Z" fill="white"/>
</mask>
<g mask="url(#mask0_1812_3117)">
<rect x="20.1797" y="17.5386" width="347.641" height="756.923" fill="#EFEFEF"/>
</g>
<path fill-rule="evenodd" clip-rule="evenodd" d="M229.314 34.1538C232.86 34.1538 235.735 31.2609 235.735 27.6923C235.735 24.1236 232.86 21.2307 229.314 21.2307C225.768 21.2307 222.894 24.1236 222.894 27.6923C222.894 31.2609 225.768 34.1538 229.314 34.1538Z" fill="#262C2D"/>
<path fill-rule="evenodd" clip-rule="evenodd" d="M229.314 31.7307C231.531 31.7307 233.327 29.9227 233.327 27.6923C233.327 25.4619 231.531 23.6538 229.314 23.6538C227.098 23.6538 225.301 25.4619 225.301 27.6923C225.301 29.9227 227.098 31.7307 229.314 31.7307Z" fill="#121515"/>
<path opacity="0.4" fill-rule="evenodd" clip-rule="evenodd" d="M229.314 26.8847C229.758 26.8847 230.117 26.5231 230.117 26.077C230.117 25.6309 229.758 25.2693 229.314 25.2693C228.871 25.2693 228.512 25.6309 228.512 26.077C228.512 26.5231 228.871 26.8847 229.314 26.8847Z" fill="#636F73"/>
<path fill-rule="evenodd" clip-rule="evenodd" d="M174.279 27.6923C174.279 26.1629 175.519 24.9231 177.048 24.9231H210.952C212.481 24.9231 213.721 26.1629 213.721 27.6923V27.6923C213.721 29.2217 212.481 30.4616 210.952 30.4616H177.048C175.519 30.4616 174.279 29.2217 174.279 27.6923V27.6923Z" fill="#262C2D"/>
<defs>
<linearGradient id="paint0_linear_1812_3117" x1="194" y1="4.61548" x2="194" y2="787.385" gradientUnits="userSpaceOnUse">
<stop stop-color="#121515"/>
<stop offset="0.484375" stop-color="#121415" stop-opacity="0.22"/>
<stop offset="1" stop-color="#121315" stop-opacity="0.78"/>
</linearGradient>
</defs>
</svg>
