<svg width="23" height="24" viewBox="0 0 23 24" fill="none" xmlns="http://www.w3.org/2000/svg">
<path fill-rule="evenodd" clip-rule="evenodd" d="M19.6685 5.83476C19.2035 5.83476 18.8376 5.47644 18.8376 5.02107C18.8376 4.47611 19.2035 4.11032 19.6685 4.11032C20.225 4.11032 20.591 4.47611 20.591 5.02107C20.591 5.47644 20.2174 5.83476 19.6685 5.83476ZM16.9851 5.83476C16.52 5.83476 16.055 5.47644 16.055 5.02107C16.055 4.47611 16.52 4.11032 16.9851 4.11032C17.4501 4.11032 17.9151 4.47611 17.9151 5.02107C17.9151 5.47644 17.4501 5.83476 16.9851 5.83476ZM14.3016 5.83476C13.8366 5.83476 13.3715 5.47644 13.3715 5.02107C13.3715 4.47611 13.8366 4.11032 14.3016 4.11032C14.7666 4.11032 15.2317 4.47611 15.2317 5.02107C15.224 5.47644 14.759 5.83476 14.3016 5.83476ZM16.9851 0.489746C13.8366 0.489746 11.2446 2.48293 11.2446 5.02107C11.2446 6.47676 12.167 7.73837 13.5621 8.55206C13.463 9.36576 12.998 10.1795 12.35 10.814C13.8366 10.7244 15.224 10.269 16.055 9.36576C16.3371 9.45534 16.703 9.45534 16.9851 9.45534C20.225 9.45534 22.7255 7.46216 22.7255 5.02107C22.7255 2.48293 20.2174 0.489746 16.9851 0.489746ZM22.9085 18.7793C23.0076 19.2346 23.0915 19.4138 22.817 19.69L19.5694 22.8552C19.4779 23.0418 19.2035 23.221 19.0129 23.3106C18.7308 23.4076 18.5479 23.4897 18.2734 23.4897C18.2734 23.4897 18.2734 23.4897 18.1743 23.4897C18.0752 23.4897 17.9914 23.4897 17.8084 23.4897C17.5263 23.4897 16.9774 23.4897 16.3218 23.4002C15.5823 23.3031 14.7514 23.0418 13.7298 22.5865C12.7083 22.2281 11.5953 21.5861 10.2993 20.7724C9.00328 19.9587 7.70729 18.8763 6.22834 17.4281C5.12294 16.3382 4.19288 15.2483 3.44578 14.2554C2.62244 13.2551 2.06593 12.2622 1.59327 11.4485C1.13587 10.5452 0.76994 9.82113 0.579353 9.09702C0.304908 8.46248 0.213427 7.83541 0.121945 7.283C0.038087 6.83509 -0.0533946 6.37972 0.038087 6.10351C0.038087 5.83476 0.038087 5.6556 0.038087 5.6556C0.038087 5.37939 0.137192 5.20023 0.22105 4.93149C0.411637 4.74486 0.503118 4.5657 0.686082 4.38653C8.46202 -3.22041 8.92705 7.10383 7.99699 8.01458L6.79248 9.1866C6.79248 9.1866 6.79248 9.28364 6.701 9.28364C6.701 9.38069 6.701 9.46281 6.701 9.46281C6.79248 9.8286 6.88396 10.1869 7.16603 10.6423C7.34137 11.0006 7.62344 11.456 8.08847 12.0009C8.45439 12.6355 9.01091 13.27 9.75801 13.9941C10.4975 14.7182 11.2446 15.2557 11.7935 15.7111C12.35 16.0694 12.8074 16.3456 13.1886 16.6218C13.5545 16.7935 13.8289 16.8906 14.111 16.8906L14.3855 16.9876C14.3855 16.9876 14.4846 16.9876 14.576 16.9876C14.6675 16.8906 14.6675 16.8906 14.6675 16.8906C17.9151 12.2622 22.634 16.6144 22.9085 18.7793Z" fill="#CF1738"/>
</svg>
